<svg width="131" height="113" viewBox="0 0 131 113" fill="none" xmlns="http://www.w3.org/2000/svg">
<path d="M11.7108 9.26792C8.85347 12.1375 2.13519 13.9614 2.13519 13.9614V16.1192C2.67983 16.1192 3.21914 16.1916 3.72232 16.3321C4.22551 16.4727 4.68271 16.6787 5.06783 16.9384C5.45295 17.1981 5.75844 17.5065 5.96687 17.8458C6.17529 18.1851 6.28257 18.5488 6.28257 18.9161C6.28257 19.2834 6.17529 19.6471 5.96687 19.9865C5.75844 20.3258 5.45295 20.6342 5.06783 20.8939C4.68271 21.1536 4.22551 21.3596 3.72232 21.5002C3.21914 21.6407 2.67983 21.7131 2.13519 21.7131V25.1963C2.67983 25.1963 3.21914 25.2687 3.72232 25.4092C4.22551 25.5498 4.68271 25.7558 5.06783 26.0155C5.45295 26.2752 5.75844 26.5836 5.96687 26.9229C6.17529 27.2622 6.28257 27.6259 6.28257 27.9932C6.28257 28.3605 6.17529 28.7242 5.96687 29.0636C5.75844 29.4029 5.45295 29.7113 5.06783 29.971C4.68271 30.2307 4.22551 30.4367 3.72232 30.5773C3.21914 30.7178 2.67983 30.7902 2.13519 30.7902V34.8729C2.67983 34.8729 3.21914 34.9452 3.72232 35.0858C4.22551 35.2264 4.68271 35.4324 5.06783 35.6921C5.45295 35.9518 5.75844 36.2601 5.96687 36.5995C6.17529 36.9388 6.28257 37.3025 6.28257 37.6698C6.28257 38.0371 6.17529 38.4008 5.96687 38.7402C5.75844 39.0795 5.45295 39.3878 5.06783 39.6476C4.68271 39.9073 4.22551 40.1133 3.72232 40.2539C3.21914 40.3944 2.67983 40.4668 2.13519 40.4668V44.5495C2.67983 44.5495 3.21914 44.6219 3.72232 44.7624C4.22551 44.903 4.68271 45.109 5.06783 45.3687C5.45295 45.6285 5.75844 45.9368 5.96687 46.2761C6.17529 46.6155 6.28257 46.9792 6.28257 47.3465C6.28257 47.7138 6.17529 48.0775 5.96687 48.4168C5.75844 48.7561 5.45295 49.0645 5.06783 49.3242C4.68271 49.5839 4.22551 49.7899 3.72232 49.9305C3.21914 50.0711 2.67983 50.1434 2.13519 50.1434V53.6266C2.67983 53.6266 3.21914 53.699 3.72232 53.8395C4.22551 53.9801 4.68271 54.1861 5.06783 54.4458C5.45295 54.7056 5.75844 55.0139 5.96687 55.3532C6.17529 55.6926 6.28257 56.0563 6.28257 56.4236C6.28257 56.7909 6.17529 57.1546 5.96687 57.4939C5.75844 57.8332 5.45295 58.1416 5.06783 58.4013C4.68271 58.661 4.22551 58.867 3.72232 59.0076C3.21914 59.1482 2.67983 59.2205 2.13519 59.2205V62.8793C2.67983 62.8793 3.21914 62.9517 3.72232 63.0922C4.22551 63.2328 4.68271 63.4388 5.06783 63.6985C5.45295 63.9582 5.75844 64.2666 5.96687 64.6059C6.17529 64.9452 6.28257 65.3089 6.28257 65.6762C6.28257 66.0435 6.17529 66.4072 5.96687 66.7466C5.75844 67.0859 5.45295 67.3943 5.06783 67.654C4.68271 67.9137 4.22551 68.1197 3.72232 68.2603C3.21914 68.4008 2.67983 68.4732 2.13519 68.4732V71.9564C2.67983 71.9564 3.21914 72.0288 3.72232 72.1693C4.22551 72.3099 4.68271 72.5159 5.06783 72.7756C5.45295 73.0353 5.75844 73.3437 5.96687 73.683C6.17529 74.0224 6.28257 74.386 6.28257 74.7533C6.28257 75.1206 6.17529 75.4844 5.96687 75.8237C5.75844 76.163 5.45295 76.4714 5.06783 76.7311C4.68271 76.9908 4.22551 77.1968 3.72232 77.3374C3.21914 77.4779 2.67983 77.5503 2.13519 77.5503V81.633C2.67983 81.633 3.21914 81.7053 3.72232 81.8459C4.22551 81.9865 4.68271 82.1925 5.06783 82.4522C5.45295 82.7119 5.75844 83.0202 5.96687 83.3596C6.17529 83.6989 6.28257 84.0626 6.28257 84.4299C6.28257 84.7972 6.17529 85.1609 5.96687 85.5003C5.75844 85.8396 5.45295 86.1479 5.06783 86.4077C4.68271 86.6674 4.22551 86.8734 3.72232 87.014C3.21914 87.1545 2.67983 87.2269 2.13519 87.2269V91.3096C2.67983 91.3096 3.21914 91.382 3.72232 91.5225C4.22551 91.6631 4.68271 91.8691 5.06783 92.1288C5.45295 92.3886 5.75844 92.6969 5.96687 93.0362C6.17529 93.3756 6.28257 93.7393 6.28257 94.1066C6.28257 94.4739 6.17529 94.8376 5.96687 95.1769C5.75844 95.5163 5.45295 95.8246 5.06783 96.0843C4.68271 96.344 4.22551 96.55 3.72232 96.6906C3.21914 96.8312 2.67983 96.9035 2.13519 96.9035V99.0696C2.13519 99.0696 8.85347 100.893 11.7108 103.763C14.5809 106.645 16.1813 112.892 16.1813 112.892L113.83 112.892C113.83 112.892 115.431 106.645 118.301 103.763C121.158 100.893 128.532 99.1165 128.532 99.1165V97.1311C127.987 97.1311 127.448 97.0588 126.944 96.9183C126.441 96.7777 125.984 96.5717 125.599 96.312C125.214 96.0522 124.908 95.7439 124.7 95.4046C124.491 95.0652 124.384 94.7015 124.384 94.3342C124.384 93.9669 124.491 93.6032 124.7 93.2639C124.908 92.9245 125.214 92.6162 125.599 92.3565C125.984 92.0968 126.441 91.8907 126.944 91.7502C127.448 91.6096 127.987 91.5373 128.532 91.5373V87.4546C127.987 87.4546 127.448 87.3822 126.944 87.2417C126.441 87.1011 125.984 86.8951 125.599 86.6354C125.214 86.3757 124.908 86.0673 124.7 85.728C124.491 85.3886 124.384 85.0249 124.384 84.6576C124.384 84.2903 124.491 83.9266 124.7 83.5873C124.908 83.248 125.214 82.9396 125.599 82.6799C125.984 82.4202 126.441 82.2142 126.944 82.0736C127.448 81.9331 127.987 81.8607 128.532 81.8607V77.778C127.987 77.778 127.448 77.7057 126.944 77.5651C126.441 77.4245 125.984 77.2185 125.599 76.9588C125.214 76.6991 124.908 76.3907 124.7 76.0514C124.491 75.7121 124.384 75.3484 124.384 74.9811C124.384 74.6138 124.491 74.2501 124.7 73.9107C124.908 73.5714 125.214 73.2631 125.599 73.0033C125.984 72.7436 126.441 72.5376 126.944 72.397C127.448 72.2565 127.987 72.1841 128.532 72.1841V68.7008C127.987 68.7008 127.448 68.6285 126.944 68.4879C126.441 68.3474 125.984 68.1413 125.599 67.8816C125.214 67.6219 124.908 67.3136 124.7 66.9742C124.491 66.6349 124.384 66.2712 124.384 65.9039C124.384 65.5366 124.491 65.1729 124.7 64.8335C124.908 64.4942 125.214 64.1859 125.599 63.9262C125.984 63.6664 126.441 63.4604 126.944 63.3199C127.448 63.1793 127.987 63.107 128.532 63.107V59.4481C127.987 59.4481 127.448 59.3758 126.944 59.2352C126.441 59.0947 125.984 58.8887 125.599 58.6289C125.214 58.3692 124.908 58.0609 124.7 57.7216C124.491 57.3822 124.384 57.0185 124.384 56.6512C124.384 56.2839 124.491 55.9202 124.7 55.5809C124.908 55.2415 125.214 54.9332 125.599 54.6735C125.984 54.4138 126.441 54.2077 126.944 54.0672C127.448 53.9266 127.987 53.8543 128.532 53.8543V50.3711C127.987 50.3711 127.448 50.2988 126.944 50.1582C126.441 50.0177 125.984 49.8116 125.599 49.5519C125.214 49.2922 124.908 48.9839 124.7 48.6445C124.491 48.3052 124.384 47.9415 124.384 47.5742C124.384 47.2069 124.491 46.8432 124.7 46.5038C124.908 46.1645 125.214 45.8562 125.599 45.5965C125.984 45.3367 126.441 45.1307 126.944 44.9902C127.448 44.8496 127.987 44.7772 128.532 44.7772V40.6944C127.987 40.6944 127.448 40.6221 126.944 40.4815C126.441 40.3409 125.984 40.1349 125.599 39.8752C125.214 39.6155 124.908 39.3071 124.7 38.9678C124.491 38.6285 124.384 38.2648 124.384 37.8975C124.384 37.5302 124.491 37.1665 124.7 36.8271C124.908 36.4878 125.214 36.1795 125.599 35.9197C125.984 35.66 126.441 35.454 126.944 35.3134C127.448 35.1729 127.987 35.1005 128.532 35.1005V31.0178C127.987 31.0178 127.448 30.9455 126.944 30.8049C126.441 30.6644 125.984 30.4583 125.599 30.1986C125.214 29.9389 124.908 29.6306 124.7 29.2912C124.491 28.9519 124.384 28.5882 124.384 28.2209C124.384 27.8536 124.491 27.4899 124.7 27.1505C124.908 26.8112 125.214 26.5029 125.599 26.2432C125.984 25.9834 126.441 25.7774 126.944 25.6369C127.448 25.4963 127.987 25.424 128.532 25.424V21.9408C127.987 21.9408 127.448 21.8684 126.944 21.7279C126.441 21.5873 125.984 21.3813 125.599 21.1216C125.214 20.8619 124.908 20.5535 124.7 20.2142C124.491 19.8749 124.384 19.5112 124.384 19.1439C124.384 18.7766 124.491 18.4129 124.7 18.0735C124.908 17.7342 125.214 17.4258 125.599 17.1661C125.984 16.9064 126.441 16.7004 126.944 16.5598C127.448 16.4193 127.987 16.3469 128.532 16.3469V13.9638C128.532 13.9638 121.158 12.1375 118.301 9.26795C115.431 6.38556 113.83 0.139328 113.83 0.139328L16.1813 0.139366C16.1813 0.139366 14.5809 6.38553 11.7108 9.26792Z" fill="#787D32"/>
<rect x="11.8415" y="10.2191" width="106.984" height="92.5927" rx="12" fill="#D9D9D9"/>
<path d="M57.7769 29.7655C62.2219 18.2655 65.3333 13.2655 65.3333 13.2655C65.3333 13.2655 68.4448 18.7655 72.4453 29.7655C76.4457 40.7655 80.8906 72.2655 65.3333 72.2655C49.7761 72.2655 53.332 41.2655 57.7769 29.7655Z" fill="#D47DA0"/>
<path d="M65.3333 75.7655C65.3333 75.7655 61.3329 78.2655 58.2214 81.2655C56.1585 83.2545 54.6655 88.2655 54.6655 88.2655C54.6655 88.2655 54.7186 90.9566 56.888 93.2655C58.9865 95.4991 65.3333 99.7655 65.3333 99.7655C65.3333 99.7655 71.611 95.6573 73.7787 93.2655C75.8412 90.9898 76.0012 88.2655 76.0012 88.2655C76.0012 88.2655 74.4881 83.5635 72.4452 81.2655C69.7783 78.2655 65.3333 75.7655 65.3333 75.7655Z" fill="#D47DA0"/>
<path fill-rule="evenodd" clip-rule="evenodd" d="M77.7792 90.7655C77.7792 90.7655 81.7796 93.2655 86.2246 94.2655C89.9847 95.1114 95.5589 95.2655 95.5589 95.2655C95.5589 95.2655 92.892 87.7655 88.447 84.2655C82.7357 79.7683 71.5563 77.2655 71.5563 77.2655C71.5563 77.2655 76.1859 80.4163 77.3347 83.7655C78.1494 86.1407 77.7792 90.7655 77.7792 90.7655Z" fill="#D47DA0"/>
<path d="M87.1136 57.7655C81.4714 65.8483 68.8893 74.2655 68.8893 74.2655C68.8893 74.2655 88.5791 75.1664 98.2259 67.7655C101.783 65.0362 104.893 57.7655 106.671 50.7655C108.299 44.3572 114.672 36.2655 114.672 36.2655C114.672 36.2655 102.599 35.7864 96.4479 42.7655C94.3527 45.1429 92.5746 48.3629 90.8297 51.5229C89.6073 53.7367 88.4011 55.921 87.1136 57.7655Z" fill="#D47DA0"/>
<path d="M84.0021 25.7655C78.8163 29.2655 76.8902 34.7655 76.8902 34.7655C76.8902 34.7655 78.9317 43.6777 79.1127 49.2655C79.3309 56.0025 76.4457 65.7655 76.4457 65.7655C76.4457 65.7655 86.3029 55.7852 88.447 51.7655C90.7857 47.381 92.099 40.3052 93.286 33.9096C93.4526 33.0117 93.6168 32.1272 93.781 31.2655C95.1144 24.2655 96.4479 21.2655 96.4479 21.2655C96.4479 21.2655 89.1879 22.2655 84.0021 25.7655Z" fill="#D47DA0"/>
<path fill-rule="evenodd" clip-rule="evenodd" d="M52.8875 90.7655C52.8875 90.7655 48.8871 93.2655 44.4421 94.2655C40.682 95.1114 35.1078 95.2655 35.1078 95.2655C35.1078 95.2655 37.7747 87.7655 42.2197 84.2655C47.931 79.7683 59.1104 77.2655 59.1104 77.2655C59.1104 77.2655 54.4808 80.4163 53.332 83.7655C52.5173 86.1407 52.8875 90.7655 52.8875 90.7655Z" fill="#D47DA0"/>
<path d="M43.5531 57.7625C49.1952 65.8453 61.7774 74.2625 61.7774 74.2625C61.7774 74.2625 42.0876 75.1634 32.4408 67.7625C28.8833 65.0332 25.7734 57.7625 23.9954 50.7625C22.3677 44.3542 15.9945 36.2625 15.9945 36.2625C15.9945 36.2625 28.0681 35.7834 34.2188 42.7625C36.314 45.1399 38.0921 48.3599 39.837 51.5199C41.0594 53.7337 42.2656 55.918 43.5531 57.7625Z" fill="#D47DA0"/>
<path d="M46.6646 25.7655C51.8504 29.2655 53.7765 34.7655 53.7765 34.7655C53.7765 34.7655 51.735 43.6777 51.554 49.2655C51.3358 56.0025 54.221 65.7655 54.221 65.7655C54.221 65.7655 44.3638 55.7852 42.2197 51.7655C39.881 47.381 38.5677 40.3052 37.3807 33.9096C37.214 33.0117 37.0499 32.1272 36.8857 31.2655C35.5522 24.2655 34.2188 21.2655 34.2188 21.2655C34.2188 21.2655 41.4788 22.2655 46.6646 25.7655Z" fill="#D47DA0"/>
</svg>
