<svg width="443" height="436" viewBox="0 0 443 436" fill="none" xmlns="http://www.w3.org/2000/svg">
<g filter="url(#filter0_d_101_112)">
<rect x="7.25415" y="0.735107" width="397" height="415" rx="49" fill="white" shape-rendering="crispEdges"/>
<rect x="7.25415" y="0.735107" width="397" height="415" rx="49" stroke="#4A4037" shape-rendering="crispEdges"/>
<mask id="mask0_101_112" style="mask-type:alpha" maskUnits="userSpaceOnUse" x="131" y="86" width="177" height="168">
<path d="M131.528 135.24C131.528 108.178 153.466 86.24 180.528 86.24H258.225C285.287 86.24 307.225 108.178 307.225 135.24V253.561H180.528C153.466 253.561 131.528 231.623 131.528 204.562V135.24Z" fill="#C66262"/>
</mask>
<g mask="url(#mask0_101_112)">
<path d="M176.981 161.904C177.267 162.238 177.492 162.655 177.645 163.18C175.94 163.057 174.017 163.703 173.217 164.625L173.683 164.823C173.84 164.887 173.96 164.936 173.898 164.915C174.107 165.42 174.173 165.505 175.026 165.566C178.558 165.819 180.229 166.429 183.308 166.16C184.256 166.595 185.204 167.03 186.282 167.352C187.083 166.43 187.987 165.761 189.692 165.883C188.71 162.507 184.717 163.568 180.846 162.923C179.763 162.084 178.441 161.938 176.981 161.904Z" fill="#4A4037"/>
<path d="M239.019 169.519C239.698 168.588 241.081 169.789 241.672 170.076L241.533 172.025C240.08 171.798 236.957 172.676 235.982 174.32C235.373 174.276 235.817 173.206 235.078 173.276C234.338 173.345 234.182 173.824 233.668 174.154C227.996 174.727 224.595 176.075 218.453 176.369C217.34 176.534 217.514 175.812 216.792 175.638C215.939 175.577 215.783 176.055 215.043 176.125C210.816 175.332 204.161 175.957 200.203 173.103C198.246 173.085 197.681 172.432 196.184 172.815C194.627 172.336 193.732 171.17 192.305 170.578C191.105 170.248 190.365 172.031 189.991 170.413C189.696 169.412 190.765 169.856 191.374 169.9C191.801 169.073 192.471 168.264 193.245 167.708C202.222 172.268 214.139 173.367 225.326 172.7C227.345 171.865 229.241 171.022 232.164 171.231C232.538 171.135 232.921 170.918 232.843 170.3C235.679 170.014 237.68 169.423 239.828 170.189C240.002 169.467 239.385 169.545 239.019 169.519Z" fill="#4A4037"/>
<path d="M240.753 155.566C242.189 156.036 240.744 157.401 240.901 158.637C231.783 161.166 220.866 163.199 210.923 161.875C209.566 162.022 209.766 160.935 209.044 160.761C206.765 161.822 204.599 159.585 203.051 160.699C202.503 159.802 200.25 160.498 200.493 158.802C196.535 159.375 193.517 157.078 193.153 153.624C198.972 154.408 204.513 157.376 210.941 158.204C218.335 159.223 224.555 157.833 231.689 157.364C232.689 157.069 233.69 156.773 234.464 156.217C236.743 156.87 238.413 155.765 240.753 155.566Z" fill="#4A4037"/>
<path d="M133.188 161.936C134.049 161.875 134.702 161.31 134.867 162.423C136.155 161.536 139.025 162.476 139.513 160.798C140.678 161.616 140.939 161.389 142.775 161.398C143.54 160.964 142.462 160.642 143.21 160.45C144.349 161.634 144.837 159.955 145.933 160.034C145.907 160.399 145.272 160.721 145.863 161.008C148.812 160.852 151.222 161.392 154.58 160.653C154.788 161.158 154.997 161.662 155.849 161.723C159.381 161.976 161.051 162.586 164.131 162.317C165.079 162.752 172.138 164.302 173.217 164.625C174.017 163.703 175.94 163.057 177.645 163.18C177.492 162.655 177.267 162.238 176.981 161.904C176.008 160.772 167.204 159.47 165.287 159.375C164.135 159.317 162.896 159.284 161.67 159.08C159.93 157.731 157.573 158.174 155.015 157.991C154.154 158.052 154.328 159.044 153.24 158.843C152.867 157.225 148.943 157.311 147.908 158.094C143.698 157.058 139.296 158.701 135.172 158.161C134.85 159.239 133.954 159.787 132.719 159.944C132.266 161.135 133.389 160.848 133.188 161.936Z" fill="#4A4037"/>
<path d="M159.316 144.1C162.369 142.482 174.729 147.652 178.731 148.184C178.522 149.393 178.087 150.341 177.886 151.429C176.564 151.089 167.761 149.234 167.483 147.99C162.977 147.667 155.975 146.309 150.799 146.795C149.946 146.734 149.233 146.438 148.894 146.046C145.248 147.376 139.551 146.601 136.358 148.453C134.566 147.835 133.687 148.139 132.295 148.774C131.504 147.86 132.948 146.495 132.557 145.12C134.053 144.738 133.714 146.06 134.436 146.234C135.166 146.287 134.01 145.347 134.558 144.529C136.672 144.069 137.646 144.138 139.064 143.138C144.64 143.905 148.851 141.514 153.722 143.577C155.506 142.603 157.437 142.986 159.316 144.1Z" fill="#4A4037"/>
<path fill-rule="evenodd" clip-rule="evenodd" d="M237.572 143.586C233.162 145.351 227.046 146.994 221.696 146.489C220.939 146.802 220.304 147.123 219.678 147.323C207.83 146.964 197.609 144.395 187.371 140.357C184.056 140.486 182.143 138.146 179.403 138.806C178.951 138.284 178.376 137.754 177.794 137.345C176.837 137.031 176.55 137.623 175.819 137.571C175.68 136.092 172.661 137.222 172.653 135.63C169.304 134.533 167.077 134.863 163.737 133.645C153.907 132.451 143.494 132.561 133.194 134.516C133.977 133.838 133.273 133.42 132.681 133.133C132.838 132.655 135.787 132.499 135.334 133.69C136.204 133.508 134.83 132.185 135.839 131.768C139.267 131.769 143.043 128.612 146.966 130.239C147.714 130.048 148.01 129.335 148.984 129.405C149.837 129.466 150.315 129.622 150.646 130.136C155.752 128.91 158.648 131.199 163.772 129.73C165.225 131.67 168.531 129.948 169.235 132.08C170.07 132.384 169.888 131.515 170.618 131.567C172.897 132.22 175.976 133.665 177.803 133.795C180.239 135.684 186.38 135.389 188.894 137.895C189.502 137.939 189.764 137.713 189.912 137.356C193.948 139.114 199.314 141.09 203.699 141.404C204.447 141.213 204.142 142.048 204.629 142.083C209.292 141.927 211.423 144.651 214.955 143.19C216.895 143.451 219.765 144.392 221.314 143.278C222.419 143.235 222.619 143.862 223.219 144.027C224.106 143.601 224.863 143.288 225.629 142.853C226.803 143.549 228.386 141.949 228.282 143.41C229.587 142.28 231.683 142.063 233.441 141.454C233.91 141.733 233.345 142.794 233.954 142.838C234.563 142.881 235.067 142.672 235.337 142.325C235.25 141.829 234.963 142.42 234.363 142.255C234.45 141.037 235.442 140.863 236.207 140.428C237.416 140.637 237.816 141.89 237.572 143.586ZM169.383 133.437L168.774 133.393L168.817 132.784L169.426 132.828L169.383 133.437ZM150.802 131.371L150.193 131.327C150.332 131.093 150.593 130.867 150.628 130.379C150.993 130.406 150.706 130.997 151.193 131.032C151.167 131.397 151.045 131.389 150.802 131.371Z" fill="#4A4037"/>
<path d="M141.927 115.969C141.862 115.229 142.236 115.136 142.396 114.658C143.754 114.519 143.547 115.605 144.268 115.783C144.456 114.941 143.716 115.006 144.035 114.051C143.295 114.116 142.649 114.555 142.088 113.899C144.636 112.628 147.153 114.905 149.439 113.858C149.606 114.851 148.885 114.673 148.941 115.534C149.69 115.347 149.888 114.383 150.413 113.934C153.325 114.283 154.411 114.49 156.771 114.061C157.201 114.829 156.844 116.271 157.537 116.814C157.573 117.92 156.618 117.6 156.43 118.443C154.503 116.456 150.839 119.478 149.839 116.584C149.23 116.536 149.408 117.407 148.453 117.088C148.013 116.442 147.686 115.926 146.853 115.617C146.225 115.813 145.784 116.758 146.749 116.956C145.334 117.826 143.762 115.989 141.927 115.969Z" fill="#4A4037"/>
<path d="M141.486 116.914C139.65 116.894 138.33 116.547 137.151 115.965C137.097 113.512 139.409 113.691 141.376 113.599C141.263 115.06 142.067 115.735 141.486 116.914Z" fill="#4A4037"/>
<path d="M244.336 124.363C245.335 127.495 240.612 128.503 238.663 128.363C234.696 130.772 228.354 130.44 224.057 132.336C223.221 132.031 222.265 131.718 221.038 131.752C211.512 133.151 202.727 129.338 193.463 128.797C193.75 128.206 194.454 128.623 193.898 127.849C185.66 124.933 176.353 121.573 166.489 119.153C166.359 117.552 166.411 116.821 167.334 115.908C169.378 116.422 172.535 116.77 174.936 117.432C176.258 117.772 177.293 118.703 178.494 119.033C179.094 119.199 179.616 118.746 180.225 118.79C180.825 118.956 181.869 119.765 182.469 119.93C183.182 120.226 184.426 119.948 184.348 121.044C188.993 121.132 193.812 123.926 198.726 125.379C200.283 125.858 202.363 125.885 204.041 126.372C206.555 127.165 210.887 128.209 214.541 128.471C216.854 128.637 219.151 127.333 220.917 128.316C224.066 127.073 229.033 127.796 231.731 126.03C236.445 126.858 239.316 124.371 244.336 124.363Z" fill="#4A4037"/>
<path fill-rule="evenodd" clip-rule="evenodd" d="M154.627 101.9C155.323 102.439 157.063 102.074 156.845 103.405C158.846 102.814 159.107 102.588 161.256 103.354C162.343 103.554 160.473 102.318 161.691 102.406C162.561 102.223 162.9 102.615 162.595 103.45C163.822 103.415 164.727 102.746 166.292 103.103C166.249 103.711 166.605 103.86 166.562 104.469C167.58 103.929 169.198 103.556 170.215 104.73C170.607 104.391 170.99 104.174 171.26 103.826C174.113 105.009 177.479 105.863 180.741 106.464C181.306 107.116 180.715 106.829 180.645 107.803C181.741 107.882 182.272 107.308 183.029 106.995C184.081 107.682 186.56 107.248 186.952 108.622C189.344 107.692 191.031 109.772 192.823 110.39C193.78 110.703 194.798 110.164 194.702 111.504C194.954 111.399 195.328 111.304 195.354 110.938C195.98 112.452 197.416 111.208 197.911 112.835C198.877 113.027 198.938 112.174 199.904 112.366C200.373 112.644 199.808 113.706 200.416 113.749C201.495 114.071 200.982 112.688 201.826 112.871C203.131 113.454 204.618 114.907 206.384 114.177C206.549 115.29 207.628 115.612 208.576 116.048C209.411 116.352 209.237 115.36 209.62 115.143C210.49 114.961 210.307 115.804 210.916 115.848C213.135 113.926 216.353 116.85 219.606 115.859C219.58 116.224 219.684 116.476 219.928 116.494C222.608 114.972 226.54 114.764 229.715 114.869C229.654 115.722 229.062 115.434 229.619 116.209C230.698 114.817 232.116 113.817 234.221 113.478C235.317 113.557 235.552 115.41 236.465 114.618C236.892 112.078 240.711 111.74 243.329 112.784C243.364 114.011 242.833 114.585 242.528 115.42C239.692 115.707 236.969 116.123 235.029 117.576C230.549 116.888 228.644 119.566 224.555 118.539C223.938 118.617 224.216 119.861 223.146 119.417C222.65 117.79 220.536 119.965 219.449 119.764C220.771 118.39 217.814 118.668 217.257 117.894C216.865 118.233 216.483 118.45 216.213 118.798C215.099 118.963 215.274 118.241 214.552 118.067C213.838 117.771 214.021 118.641 213.534 118.606C209.245 118.666 208.854 117.292 204.931 117.378C203.191 116.029 197.119 117.063 196.11 114.053C195.154 113.739 194.866 114.331 194.136 114.278C194.553 113.574 195.702 112.922 194.91 112.008C193.283 114.217 189.917 113.364 188.604 111.189C186.15 112.972 182.228 109.63 179.392 109.917L179.488 108.577C175.721 109.899 170.798 106.853 167.231 107.087C167.014 106.704 166.526 106.669 166.692 106.069C165.5 105.616 165.657 106.852 164.7 106.538C164.5 105.912 163.778 105.738 163.456 105.103C162.508 104.668 162.795 105.79 162.751 106.399C161.42 106.181 160.742 105.398 159.803 104.841C158.567 106.711 157.167 104.04 156.392 106.31C154.792 104.727 153.852 105.884 151.808 105.37C151.878 104.396 151.687 103.647 150.973 103.352C149.86 103.517 150.808 103.952 150.486 105.03C148.763 105.152 148.216 104.256 148.312 102.916C149.564 102.516 152.383 102.473 152.652 103.839C153.087 102.891 154.201 102.726 154.627 101.9ZM219.014 117.285C219.04 116.92 218.431 116.876 218.405 117.241C218.379 117.607 218.762 117.389 219.014 117.285ZM204.792 115.899C205.505 116.195 206.314 115.151 205.47 114.968C205.436 115.455 204.948 115.42 204.792 115.899ZM196.632 113.6C197.354 113.775 197.859 113.566 198.016 113.088C197.407 113.044 196.337 112.6 196.632 113.6ZM172.729 105.522C172.364 105.496 172.277 105 172.12 105.479C172.094 105.844 172.572 106.001 172.729 105.522Z" fill="#4A4037"/>
<path d="M142.457 104.333C142.387 103.593 140.499 104.315 141.213 102.897C141.831 102.819 142.3 103.097 142.144 103.576C142.84 102.402 144.902 102.672 145.937 101.889C147.05 101.724 146.876 102.446 147.598 102.62C147.772 103.612 147.05 103.438 147.111 104.299C145.684 103.707 144.954 103.655 143.866 103.454C143.422 104.524 144.806 104.011 145.528 104.185C144.797 105.847 146.536 105.482 147.11 106.013C146.693 106.717 145.031 105.986 144.04 106.16C143.961 105.542 143.37 105.255 143.553 104.411C142.126 103.819 142.456 106.046 141.561 104.88C141.578 104.637 141.952 104.541 142.457 104.333Z" fill="#4A4037"/>
<path d="M139.021 104.454C139.082 103.601 140.125 104.41 140.36 104.55C140.221 104.785 139.969 104.889 139.951 105.132L139.342 105.089C139.36 104.845 139.255 104.593 139.021 104.454Z" fill="#4A4037"/>
<path d="M138.073 104.018C138.107 105.245 136.672 104.775 136.593 105.871C135.167 105.279 136.629 103.67 138.073 104.018Z" fill="#4A4037"/>
<path d="M138.585 105.402C139.186 105.567 139.273 106.063 139.098 106.785L137.759 106.689C137.585 105.697 138.42 106.002 138.585 105.402Z" fill="#4A4037"/>
<path d="M168.001 87.8013C168.958 88.1147 168.671 86.9925 169.75 87.3146C170.733 87.2626 171.446 87.5585 171.654 88.0631C175.465 86.1328 178.787 91.0224 182.858 90.5797C184.615 91.6848 187.677 91.6595 188.66 93.3212C192.279 94.0701 196.036 94.5842 198.481 96.3507C199.22 96.2812 199.733 95.9507 200.821 96.1511C201.769 96.5862 202.717 97.0214 203.404 97.6826C203.9 97.5958 204.291 97.2566 204.787 97.1697C206.762 98.6577 209.258 97.9797 211.442 98.2586C211.564 98.2673 211.764 98.8937 212.007 98.9111C213.686 99.3986 216.391 99.2253 218.34 99.3649C219.801 99.4696 221.498 99.7135 222.724 99.679C223.585 99.6183 224.368 98.94 225.108 98.8706C225.595 98.9055 226.169 99.4362 226.787 99.358C231.476 98.8371 236.086 97.6986 240.375 95.925C242.802 96.2213 244.185 97.422 244.132 99.8665C240.583 99.857 235.033 102.152 231.249 102.004C230.822 102.83 229.135 102.464 228.813 103.543C228.43 102.046 226.716 103.76 225.812 102.716C225.246 103.777 222.993 102.759 222.993 104.472C222.253 104.542 222.419 103.941 222.454 103.454C203.863 104.938 189.008 95.3047 172.141 91.5255C172.054 91.0297 171.062 91.2035 171.628 90.1423C170.758 90.3248 170.801 91.4295 169.61 90.9769L169.679 90.0027C166.669 91.0111 165.251 90.2975 162.372 89.4791C155.596 90.0952 149.141 87.919 143.138 91.406C142.138 89.9878 141.259 92.0057 139.876 90.805C138.658 90.7177 138.388 92.7794 137.127 91.5873C137.101 90.239 137.867 89.8041 139.198 90.0219C139.511 89.0651 138.389 89.3519 138.711 88.2733C140.468 89.3784 142.373 88.4134 142.852 86.8564C150.168 85.5444 157.78 85.2329 165.67 86.1655C166.366 86.705 166.922 87.4792 168.001 87.8013Z" fill="#4A4037"/>
<path d="M138.536 92.4227C138.893 92.5707 139.241 92.8405 139.075 93.4407C138.579 93.5276 138.493 93.0316 138.127 93.0055C138.266 92.7706 138.51 92.7881 138.536 92.4227Z" fill="#4A4037"/>
<path d="M136.458 88.9688L137.067 89.0124L137.023 89.6213L136.414 89.5777L136.458 88.9688Z" fill="#4A4037"/>
<path d="M237.712 141.638L237.808 140.298C238.695 139.872 239.809 139.707 240.583 139.151C241.531 139.586 242.088 140.36 243.166 140.682C241.94 142.431 239.538 143.483 237.712 141.638Z" fill="#4A4037"/>
</g>
<g style="mix-blend-mode:luminosity">
<rect x="242.745" y="63.824" width="122.594" height="132.87" stroke="#4A4037" stroke-width="2" stroke-linejoin="round" stroke-dasharray="3 5"/>
</g>
<g opacity="0.7">
<line x1="46.3397" y1="253.235" x2="343.34" y2="253.235" stroke="#4A4037"/>
<line x1="46.3397" y1="287.235" x2="343.34" y2="287.235" stroke="#4A4037"/>
<line x1="46.3397" y1="321.235" x2="343.34" y2="321.235" stroke="#4A4037"/>
<line x1="46.3397" y1="355.235" x2="343.34" y2="355.235" stroke="#4A4037"/>
</g>
</g>
<defs>
<filter id="filter0_d_101_112" x="0.75415" y="0.235107" width="442" height="461" filterUnits="userSpaceOnUse" color-interpolation-filters="sRGB">
<feFlood flood-opacity="0" result="BackgroundImageFix"/>
<feColorMatrix in="SourceAlpha" type="matrix" values="0 0 0 0 0 0 0 0 0 0 0 0 0 0 0 0 0 0 127 0" result="hardAlpha"/>
<feOffset dx="16" dy="23"/>
<feGaussianBlur stdDeviation="11"/>
<feComposite in2="hardAlpha" operator="out"/>
<feColorMatrix type="matrix" values="0 0 0 0 0 0 0 0 0 0 0 0 0 0 0 0 0 0 0.25 0"/>
<feBlend mode="normal" in2="BackgroundImageFix" result="effect1_dropShadow_101_112"/>
<feBlend mode="normal" in="SourceGraphic" in2="effect1_dropShadow_101_112" result="shape"/>
</filter>
</defs>
</svg>
