<svg width="443" height="462" viewBox="0 0 443 462" fill="none" xmlns="http://www.w3.org/2000/svg">
<g filter="url(#filter0_d_61_153)">
<path d="M7.25415 50C7.25415 22.938 29.1922 1 56.2542 1H355.254C382.316 1 404.254 22.938 404.254 50V367C404.254 394.062 382.316 416 355.254 416H56.2542C29.1922 416 7.25415 394.062 7.25415 367V50Z" fill="#EDEDED" shape-rendering="crispEdges"/>
<path d="M56.2542 1V1.5H355.254V1V0.5H56.2542V1ZM404.254 50H403.754V367H404.254H404.754V50H404.254ZM355.254 416V415.5H56.2542V416V416.5H355.254V416ZM7.25415 367H7.75415V50H7.25415H6.75415V367H7.25415ZM56.2542 416V415.5C29.4684 415.5 7.75415 393.786 7.75415 367H7.25415H6.75415C6.75415 394.338 28.9161 416.5 56.2542 416.5V416ZM404.254 367H403.754C403.754 393.786 382.04 415.5 355.254 415.5V416V416.5C382.592 416.5 404.754 394.338 404.754 367H404.254ZM355.254 1V1.5C382.04 1.5 403.754 23.2142 403.754 50H404.254H404.754C404.754 22.6619 382.592 0.5 355.254 0.5V1ZM56.2542 1V0.5C28.9161 0.5 6.75415 22.6619 6.75415 50H7.25415H7.75415C7.75415 23.2142 29.4683 1.5 56.2542 1.5V1Z" fill="black" fill-opacity="0.41"/>
<mask id="mask0_61_153" style="mask-type:alpha" maskUnits="userSpaceOnUse" x="131" y="86" width="177" height="168">
<path d="M131.528 135.505C131.528 108.443 153.466 86.5049 180.528 86.5049H258.225C285.287 86.5049 307.225 108.443 307.225 135.505V253.826H180.528C153.466 253.826 131.528 231.888 131.528 204.826V135.505Z" fill="#C66262"/>
</mask>
<g mask="url(#mask0_61_153)">
<path d="M176.981 162.169C177.267 162.502 177.492 162.92 177.645 163.444C175.94 163.322 174.017 163.968 173.217 164.889L173.683 165.088C173.84 165.152 173.96 165.201 173.898 165.18C174.107 165.685 174.173 165.77 175.026 165.831C178.558 166.084 180.229 166.694 183.308 166.425C184.256 166.86 185.204 167.295 186.282 167.617C187.083 166.695 187.987 166.026 189.692 166.148C188.71 162.772 184.717 163.833 180.846 163.188C179.763 162.349 178.441 162.203 176.981 162.169Z" fill="#4A4037"/>
<path d="M239.019 169.784C239.698 168.853 241.081 170.054 241.672 170.341L241.533 172.289C240.08 172.063 236.957 172.941 235.982 174.585C235.373 174.541 235.817 173.471 235.078 173.541C234.338 173.61 234.182 174.089 233.668 174.419C227.996 174.992 224.595 176.34 218.453 176.634C217.34 176.799 217.514 176.077 216.792 175.903C215.939 175.842 215.783 176.32 215.043 176.39C210.816 175.597 204.161 176.222 200.203 173.368C198.246 173.35 197.681 172.697 196.184 173.08C194.627 172.601 193.732 171.435 192.305 170.843C191.105 170.512 190.365 172.296 189.991 170.678C189.696 169.677 190.765 170.121 191.374 170.165C191.801 169.338 192.471 168.529 193.245 167.973C202.222 172.533 214.139 173.632 225.326 172.964C227.345 172.13 229.241 171.286 232.164 171.496C232.538 171.4 232.921 171.183 232.843 170.565C235.679 170.279 237.68 169.688 239.828 170.454C240.002 169.732 239.385 169.81 239.019 169.784Z" fill="#4A4037"/>
<path d="M240.753 155.831C242.189 156.301 240.744 157.666 240.901 158.901C231.783 161.431 220.866 163.464 210.923 162.14C209.566 162.287 209.766 161.2 209.044 161.026C206.765 162.087 204.599 159.85 203.051 160.963C202.503 160.067 200.25 160.763 200.493 159.066C196.535 159.64 193.517 157.343 193.153 153.889C198.972 154.673 204.513 157.641 210.941 158.469C218.335 159.488 224.555 158.098 231.689 157.629C232.689 157.334 233.69 157.038 234.464 156.482C236.743 157.135 238.413 156.03 240.753 155.831Z" fill="#4A4037"/>
<path d="M133.188 162.201C134.049 162.14 134.702 161.575 134.867 162.688C136.155 161.801 139.025 162.741 139.513 161.063C140.678 161.88 140.939 161.654 142.775 161.663C143.54 161.229 142.462 160.907 143.21 160.715C144.349 161.899 144.837 160.22 145.933 160.298C145.907 160.664 145.272 160.985 145.863 161.273C148.812 161.117 151.222 161.657 154.58 160.918C154.788 161.423 154.997 161.927 155.849 161.988C159.381 162.241 161.051 162.851 164.131 162.582C165.079 163.017 172.138 164.567 173.217 164.889C174.017 163.968 175.94 163.322 177.645 163.444C177.492 162.92 177.267 162.502 176.981 162.169C176.008 161.037 167.204 159.735 165.287 159.64C164.135 159.582 162.896 159.549 161.67 159.345C159.93 157.996 157.573 158.439 155.015 158.256C154.154 158.317 154.328 159.309 153.24 159.108C152.867 157.49 148.943 157.576 147.908 158.359C143.698 157.323 139.296 158.966 135.172 158.426C134.85 159.504 133.954 160.052 132.719 160.208C132.266 161.4 133.389 161.113 133.188 162.201Z" fill="#4A4037"/>
<path d="M159.316 144.365C162.369 142.747 174.729 147.917 178.731 148.449C178.522 149.658 178.087 150.606 177.886 151.694C176.564 151.354 167.761 149.499 167.483 148.255C162.977 147.932 155.975 146.574 150.799 147.06C149.946 146.998 149.233 146.703 148.894 146.311C145.248 147.641 139.551 146.866 136.358 148.718C134.566 148.1 133.687 148.404 132.295 149.039C131.504 148.125 132.948 146.76 132.557 145.385C134.053 145.003 133.714 146.325 134.436 146.499C135.166 146.552 134.01 145.612 134.558 144.794C136.672 144.334 137.646 144.403 139.064 143.403C144.64 144.17 148.851 141.779 153.722 143.842C155.506 142.868 157.437 143.251 159.316 144.365Z" fill="#4A4037"/>
<path fill-rule="evenodd" clip-rule="evenodd" d="M237.572 143.851C233.162 145.616 227.046 147.259 221.696 146.753C220.939 147.066 220.304 147.388 219.678 147.588C207.83 147.229 197.609 144.66 187.371 140.622C184.056 140.751 182.143 138.411 179.403 139.071C178.951 138.549 178.376 138.019 177.794 137.61C176.837 137.296 176.55 137.888 175.819 137.835C175.68 136.357 172.661 137.487 172.653 135.895C169.304 134.798 167.077 135.128 163.737 133.909C153.907 132.716 143.494 132.826 133.194 134.781C133.977 134.103 133.273 133.685 132.681 133.398C132.838 132.919 135.787 132.764 135.334 133.955C136.204 133.773 134.83 132.45 135.839 132.033C139.267 132.034 143.043 128.877 146.966 130.504C147.714 130.313 148.01 129.6 148.984 129.67C149.837 129.731 150.315 129.887 150.646 130.401C155.752 129.175 158.648 131.464 163.772 129.995C165.225 131.935 168.531 130.213 169.235 132.345C170.07 132.649 169.888 131.779 170.618 131.832C172.897 132.485 175.976 133.929 177.803 134.06C180.239 135.949 186.38 135.654 188.894 138.16C189.502 138.204 189.764 137.978 189.912 137.621C193.948 139.379 199.314 141.355 203.699 141.669C204.447 141.478 204.142 142.313 204.629 142.348C209.292 142.192 211.423 144.916 214.955 143.455C216.895 143.716 219.765 144.657 221.314 143.543C222.419 143.5 222.619 144.127 223.219 144.292C224.106 143.866 224.863 143.553 225.629 143.118C226.803 143.814 228.386 142.214 228.282 143.675C229.587 142.545 231.683 142.328 233.441 141.719C233.91 141.998 233.345 143.059 233.954 143.102C234.563 143.146 235.067 142.937 235.337 142.589C235.25 142.094 234.963 142.685 234.363 142.52C234.45 141.302 235.442 141.128 236.207 140.693C237.416 140.902 237.816 142.155 237.572 143.851ZM169.383 133.702L168.774 133.658L168.817 133.049L169.426 133.093L169.383 133.702ZM150.802 131.636L150.193 131.592C150.332 131.358 150.593 131.131 150.628 130.644C150.993 130.671 150.706 131.262 151.193 131.297C151.167 131.662 151.045 131.653 150.802 131.636Z" fill="#4A4037"/>
<path d="M141.927 116.234C141.862 115.494 142.236 115.4 142.396 114.923C143.754 114.784 143.547 115.87 144.268 116.048C144.456 115.206 143.716 115.271 144.035 114.316C143.295 114.381 142.649 114.82 142.088 114.164C144.636 112.893 147.153 115.17 149.439 114.123C149.606 115.116 148.885 114.937 148.941 115.799C149.69 115.612 149.888 114.648 150.413 114.199C153.325 114.548 154.411 114.754 156.771 114.326C157.201 115.094 156.844 116.536 157.537 117.079C157.573 118.184 156.618 117.865 156.43 118.708C154.503 116.721 150.839 119.743 149.839 116.848C149.23 116.801 149.408 117.672 148.453 117.353C148.013 116.707 147.686 116.191 146.853 115.882C146.225 116.078 145.784 117.023 146.749 117.221C145.334 118.09 143.762 116.254 141.927 116.234Z" fill="#4A4037"/>
<path d="M141.486 117.179C139.65 117.159 138.33 116.812 137.151 116.23C137.097 113.777 139.409 113.956 141.376 113.864C141.263 115.325 142.067 116 141.486 117.179Z" fill="#4A4037"/>
<path d="M244.336 124.628C245.335 127.76 240.612 128.768 238.663 128.628C234.696 131.037 228.354 130.705 224.057 132.6C223.221 132.296 222.265 131.983 221.038 132.017C211.512 133.415 202.727 129.603 193.463 129.062C193.75 128.47 194.454 128.888 193.898 128.114C185.66 125.198 176.353 121.838 166.489 119.417C166.359 117.817 166.411 117.086 167.334 116.173C169.378 116.686 172.535 117.035 174.936 117.697C176.258 118.036 177.293 118.967 178.494 119.298C179.094 119.464 179.616 119.011 180.225 119.055C180.825 119.22 181.869 120.03 182.469 120.195C183.182 120.491 184.426 120.213 184.348 121.309C188.993 121.397 193.812 124.191 198.726 125.644C200.283 126.123 202.363 126.15 204.041 126.637C206.555 127.429 210.887 128.474 214.541 128.736C216.854 128.902 219.151 127.597 220.917 128.581C224.066 127.338 229.033 128.061 231.731 126.295C236.445 127.123 239.316 124.636 244.336 124.628Z" fill="#4A4037"/>
<path fill-rule="evenodd" clip-rule="evenodd" d="M154.627 102.164C155.323 102.704 157.063 102.339 156.845 103.67C158.846 103.079 159.107 102.853 161.256 103.619C162.343 103.819 160.473 102.583 161.691 102.671C162.561 102.488 162.9 102.88 162.595 103.715C163.822 103.68 164.727 103.01 166.292 103.367C166.249 103.976 166.605 104.124 166.562 104.733C167.58 104.194 169.198 103.821 170.215 104.995C170.607 104.656 170.99 104.439 171.26 104.091C174.113 105.274 177.479 106.128 180.741 106.729C181.306 107.381 180.715 107.094 180.645 108.068C181.741 108.147 182.272 107.573 183.029 107.26C184.081 107.947 186.56 107.513 186.952 108.887C189.344 107.957 191.031 110.036 192.823 110.655C193.78 110.968 194.798 110.429 194.702 111.768C194.954 111.664 195.328 111.569 195.354 111.203C195.98 112.717 197.416 111.473 197.911 113.1C198.877 113.292 198.938 112.439 199.904 112.631C200.373 112.909 199.808 113.97 200.416 114.014C201.495 114.336 200.982 112.953 201.826 113.136C203.131 113.719 204.618 115.172 206.384 114.442C206.549 115.555 207.628 115.877 208.576 116.312C209.411 116.617 209.237 115.625 209.62 115.408C210.49 115.225 210.307 116.069 210.916 116.113C213.135 114.191 216.353 117.114 219.606 116.123C219.58 116.489 219.684 116.741 219.928 116.759C222.608 115.237 226.54 115.029 229.715 115.134C229.654 115.986 229.062 115.699 229.619 116.474C230.698 115.082 232.116 114.082 234.221 113.743C235.317 113.822 235.552 115.675 236.465 114.883C236.892 112.343 240.711 112.005 243.329 113.049C243.364 114.276 242.833 114.85 242.528 115.685C239.692 115.971 236.969 116.388 235.029 117.841C230.549 117.152 228.644 119.831 224.555 118.804C223.938 118.882 224.216 120.126 223.146 119.682C222.65 118.055 220.536 120.23 219.449 120.029C220.771 118.655 217.814 118.933 217.257 118.159C216.865 118.498 216.483 118.715 216.213 119.063C215.099 119.228 215.274 118.506 214.552 118.332C213.838 118.036 214.021 118.906 213.534 118.871C209.245 118.931 208.854 117.556 204.931 117.643C203.191 116.294 197.119 117.328 196.11 114.318C195.154 114.004 194.866 114.596 194.136 114.543C194.553 113.839 195.702 113.187 194.91 112.273C193.283 114.482 189.917 113.629 188.604 111.454C186.15 113.237 182.228 109.895 179.392 110.182L179.488 108.842C175.721 110.164 170.798 107.118 167.231 107.352C167.014 106.969 166.526 106.934 166.692 106.334C165.5 105.881 165.657 107.117 164.7 106.803C164.5 106.177 163.778 106.003 163.456 105.368C162.508 104.933 162.795 106.055 162.751 106.664C161.42 106.446 160.742 105.663 159.803 105.106C158.567 106.976 157.167 104.305 156.392 106.575C154.792 104.992 153.852 106.148 151.808 105.635C151.878 104.661 151.687 103.912 150.973 103.616C149.86 103.781 150.808 104.217 150.486 105.295C148.763 105.417 148.216 104.52 148.312 103.181C149.564 102.781 152.383 102.738 152.652 104.104C153.087 103.156 154.201 102.991 154.627 102.164ZM219.014 117.55C219.04 117.185 218.431 117.141 218.405 117.506C218.379 117.872 218.762 117.654 219.014 117.55ZM204.792 116.164C205.505 116.46 206.314 115.416 205.47 115.233C205.436 115.72 204.948 115.685 204.792 116.164ZM196.632 113.865C197.354 114.039 197.859 113.831 198.016 113.352C197.407 113.309 196.337 112.865 196.632 113.865ZM172.729 105.787C172.364 105.761 172.277 105.265 172.12 105.744C172.094 106.109 172.572 106.266 172.729 105.787Z" fill="#4A4037"/>
<path d="M142.457 104.597C142.387 103.858 140.499 104.58 141.213 103.162C141.831 103.084 142.3 103.362 142.144 103.841C142.84 102.666 144.902 102.937 145.937 102.154C147.05 101.989 146.876 102.711 147.598 102.885C147.772 103.877 147.05 103.703 147.111 104.564C145.684 103.972 144.954 103.92 143.866 103.719C143.422 104.789 144.806 104.276 145.528 104.45C144.797 106.112 146.536 105.747 147.11 106.277C146.693 106.982 145.031 106.251 144.04 106.425C143.961 105.807 143.37 105.52 143.553 104.676C142.126 104.084 142.456 106.311 141.561 105.145C141.578 104.902 141.952 104.806 142.457 104.597Z" fill="#4A4037"/>
<path d="M139.021 104.719C139.082 103.866 140.125 104.675 140.36 104.815C140.221 105.049 139.969 105.154 139.951 105.397L139.342 105.354C139.36 105.11 139.255 104.858 139.021 104.719Z" fill="#4A4037"/>
<path d="M138.073 104.283C138.107 105.51 136.672 105.04 136.593 106.136C135.167 105.544 136.629 103.935 138.073 104.283Z" fill="#4A4037"/>
<path d="M138.585 105.667C139.186 105.832 139.273 106.328 139.098 107.05L137.759 106.954C137.585 105.962 138.42 106.267 138.585 105.667Z" fill="#4A4037"/>
<path d="M168.001 88.0662C168.958 88.3796 168.671 87.2574 169.75 87.5795C170.733 87.5275 171.446 87.8234 171.654 88.328C175.465 86.3977 178.787 91.2873 182.858 90.8446C184.615 91.9497 187.677 91.9244 188.66 93.5861C192.279 94.335 196.036 94.8491 198.481 96.6156C199.22 96.5461 199.733 96.2156 200.821 96.416C201.769 96.8511 202.717 97.2862 203.404 97.9475C203.9 97.8606 204.291 97.5215 204.787 97.4346C206.762 98.9226 209.258 98.2446 211.442 98.5235C211.564 98.5322 211.764 99.1586 212.007 99.176C213.686 99.6635 216.391 99.4901 218.34 99.6298C219.801 99.7345 221.498 99.9784 222.724 99.9439C223.585 99.8832 224.368 99.2049 225.108 99.1355C225.595 99.1704 226.169 99.7011 226.787 99.6229C231.476 99.102 236.086 97.9635 240.375 96.1899C242.802 96.4862 244.185 97.6869 244.132 100.131C240.583 100.122 235.033 102.417 231.249 102.268C230.822 103.095 229.135 102.729 228.813 103.808C228.43 102.311 226.716 104.025 225.812 102.981C225.246 104.042 222.993 103.023 222.993 104.737C222.253 104.807 222.419 104.206 222.454 103.719C203.863 105.203 189.008 95.5696 172.141 91.7904C172.054 91.2946 171.062 91.4683 171.628 90.4072C170.758 90.5897 170.801 91.6944 169.61 91.2417L169.679 90.2676C166.669 91.276 165.251 90.5623 162.372 89.744C155.596 90.3601 149.141 88.1839 143.138 91.6709C142.138 90.2527 141.259 92.2706 139.876 91.0698C138.658 90.9826 138.388 93.0443 137.127 91.8522C137.101 90.5038 137.867 90.069 139.198 90.2868C139.511 89.33 138.389 89.6168 138.711 88.5382C140.468 89.6433 142.373 88.6783 142.852 87.1212C150.168 85.8093 157.78 85.4978 165.67 86.4304C166.366 86.9698 166.922 87.7441 168.001 88.0662Z" fill="#4A4037"/>
<path d="M138.536 92.6876C138.893 92.8356 139.241 93.1054 139.075 93.7056C138.579 93.7925 138.493 93.2965 138.127 93.2703C138.266 93.0355 138.51 93.053 138.536 92.6876Z" fill="#4A4037"/>
<path d="M136.458 89.2337L137.067 89.2773L137.023 89.8862L136.414 89.8426L136.458 89.2337Z" fill="#4A4037"/>
<path d="M237.712 141.903L237.808 140.563C238.695 140.137 239.809 139.972 240.583 139.416C241.531 139.851 242.088 140.625 243.166 140.947C241.94 142.695 239.538 143.747 237.712 141.903Z" fill="#4A4037"/>
</g>
<g style="mix-blend-mode:luminosity">
<rect x="242.745" y="64.0889" width="122.594" height="132.87" stroke="#4A4037" stroke-width="2" stroke-linejoin="round" stroke-dasharray="3 5"/>
</g>
<g opacity="0.7">
<line x1="46.3397" y1="253.5" x2="343.34" y2="253.5" stroke="#4A4037"/>
<line x1="46.3397" y1="287.5" x2="343.34" y2="287.5" stroke="#4A4037"/>
<line x1="46.3397" y1="321.5" x2="343.34" y2="321.5" stroke="#4A4037"/>
<line x1="46.3397" y1="355.5" x2="343.34" y2="355.5" stroke="#4A4037"/>
</g>
</g>
<defs>
<filter id="filter0_d_61_153" x="0.75415" y="0.5" width="442" height="461" filterUnits="userSpaceOnUse" color-interpolation-filters="sRGB">
<feFlood flood-opacity="0" result="BackgroundImageFix"/>
<feColorMatrix in="SourceAlpha" type="matrix" values="0 0 0 0 0 0 0 0 0 0 0 0 0 0 0 0 0 0 127 0" result="hardAlpha"/>
<feOffset dx="16" dy="23"/>
<feGaussianBlur stdDeviation="11"/>
<feComposite in2="hardAlpha" operator="out"/>
<feColorMatrix type="matrix" values="0 0 0 0 0 0 0 0 0 0 0 0 0 0 0 0 0 0 0.25 0"/>
<feBlend mode="normal" in2="BackgroundImageFix" result="effect1_dropShadow_61_153"/>
<feBlend mode="normal" in="SourceGraphic" in2="effect1_dropShadow_61_153" result="shape"/>
</filter>
</defs>
</svg>
