<svg width="336" height="220" viewBox="0 0 336 220" fill="none" xmlns="http://www.w3.org/2000/svg" xmlns:xlink="http://www.w3.org/1999/xlink">
<g clip-path="url(#clip0_6_265)">
<g filter="url(#filter0_dn_6_265)">
<path d="M25.3131 18.2823C23.3546 17.7607 22.442 13.7902 22.442 13.7902H16.2212L13.3501 19.7796C13.3501 19.7796 17.0093 22.2809 17.1783 24.7708C17.3844 27.8079 12.3324 27.7162 12.3931 30.7602C12.4459 33.4108 16.2212 33.5993 16.2212 36.2505C16.2212 38.9017 12.4967 39.0918 12.3931 41.7408C12.2831 44.5496 16.2212 44.9191 16.2212 47.7302C16.2212 50.5413 12.1596 50.919 12.3931 53.7196C12.6004 56.2064 16.1113 56.2173 16.2212 58.7108C16.338 61.3591 12.2435 61.5545 12.3931 64.2011C12.512 66.3058 15.0852 66.593 15.2642 68.6931C15.4715 71.1258 12.6139 71.752 12.3931 74.1834C12.1246 77.1391 15.4313 78.2073 15.2642 81.1711C15.117 83.7816 12.0918 84.5643 12.3931 87.1605C12.6806 89.6385 15.9274 89.6744 16.2212 92.1516C16.5714 95.1044 12.1011 95.6805 12.3931 98.6402C12.6265 101.007 15.6424 101.254 15.7427 103.631C15.8499 106.17 12.6186 106.591 12.3931 109.122C12.1454 111.9 15.5526 112.836 15.2642 115.61C15.0293 117.87 12.3487 118.329 12.3931 120.601C12.4395 122.98 15.7427 123.213 15.7427 125.592C15.7427 127.972 12.7659 128.236 12.3931 130.584C11.9278 133.513 15.6488 134.63 15.2642 137.571C14.9697 139.824 12.4869 140.292 12.3931 142.563C12.277 145.371 16.4547 145.751 16.2212 148.552C16.0139 151.039 12.6869 151.066 12.3931 153.543C12.0428 156.496 16.5714 157.079 16.2212 160.032C15.9274 162.509 12.6004 162.536 12.3931 165.023C12.1596 167.823 16.281 168.202 16.2212 171.012C16.1672 173.553 12.8716 173.961 12.8716 176.503C12.8716 179.044 15.9411 179.468 16.2212 181.993C16.5864 185.284 11.6482 186.258 12.3931 189.48C12.9207 191.761 16.4695 191.333 16.2212 193.972C16.0014 196.308 12.3931 199.462 12.3931 199.462L15.2642 204.952L21.9635 205.95C21.9635 205.95 23.3577 202.323 25.3131 201.957C27.6688 201.517 27.7077 205.836 30.0983 205.95C32.6374 206.072 32.8279 202.162 35.3621 201.957C38.2061 201.728 38.7519 206.316 41.5828 205.95C43.9579 205.644 43.9839 202.174 46.368 201.957C49.053 201.714 49.4177 206.071 52.1103 205.95C54.2876 205.853 54.7162 202.956 56.8955 202.956C59.0748 202.956 59.5078 205.776 61.6807 205.95C64.1805 206.151 64.9174 202.862 67.423 202.956C69.763 203.043 70.3452 205.95 72.6867 205.95C75.0282 205.95 75.6089 202.956 77.9504 202.956C80.2919 202.956 80.8737 205.875 83.2141 205.95C86.0653 206.042 86.5909 201.728 89.4349 201.957C91.9691 202.162 92.1569 205.95 94.6986 205.95C97.2404 205.95 97.4227 202.066 99.9624 201.957C102.655 201.843 103.02 206.194 105.705 205.95C108.089 205.734 108.106 202.174 110.49 201.957C113.175 201.714 113.547 206.194 116.232 205.95C118.616 205.734 118.633 202.174 121.017 201.957C123.702 201.714 124.064 205.945 126.76 205.95C129.101 205.955 129.683 203.043 132.023 202.956C134.529 202.862 135.266 206.155 137.766 205.95C140.299 205.743 140.49 201.836 143.029 201.957C145.42 202.072 145.43 205.734 147.814 205.95C150.499 206.194 150.862 201.957 153.557 201.957C156.252 201.957 156.614 206.194 159.299 205.95C161.683 205.734 161.709 202.264 164.084 201.957C166.915 201.592 167.457 206.119 170.305 205.95C172.738 205.806 173.132 202.457 175.569 202.457C178.005 202.457 178.396 205.894 180.832 205.95C183.527 206.013 183.881 202.06 186.575 201.957C189.425 201.849 189.977 206.409 192.795 205.95C194.901 205.608 194.99 202.751 197.102 202.457C199.675 202.098 200.257 206.174 202.844 205.95C205.118 205.754 205.364 202.734 207.63 202.457C210.37 202.121 211.117 206.344 213.85 205.95C216.221 205.609 216.251 202.174 218.636 201.957C221.321 201.714 221.693 206.194 224.378 205.95C226.762 205.734 226.772 202.072 229.163 201.957C231.702 201.836 231.885 205.95 234.427 205.95C236.969 205.95 237.149 201.957 239.69 201.957C242.232 201.957 242.415 205.842 244.954 205.95C247.647 206.065 248.004 201.843 250.696 201.957C253.236 202.066 253.421 205.842 255.96 205.95C258.653 206.065 259.009 202.06 261.702 201.957C264.553 201.849 265.092 206.316 267.923 205.95C270.298 205.644 270.318 202.072 272.708 201.957C275.247 201.836 275.433 206.072 277.972 205.95C280.363 205.836 280.405 202.416 282.757 201.957C285.88 201.349 286.812 206.559 289.935 205.95C292.288 205.492 292.403 201.334 294.72 201.957C296.53 202.445 297.591 205.95 297.591 205.95H299.984C299.984 205.95 302.737 201.544 305.248 201.957C307.336 202.301 309.076 205.95 309.076 205.95L315.775 205.451V197.465C315.775 197.465 313.383 196.348 313.383 194.97C313.383 193.592 315.775 192.474 315.775 192.474V187.483C315.775 187.483 312.653 184.848 313.383 182.991C313.836 181.836 315.775 180.995 315.775 180.995V175.504C315.775 175.504 312.986 173.303 313.383 171.511C313.68 170.168 315.775 169.016 315.775 169.016V164.524C315.775 164.524 313.274 162.366 313.383 160.531C313.482 158.857 315.775 157.037 315.775 157.037V152.545C315.775 152.545 313.491 151.068 313.383 149.55C313.263 147.878 315.775 146.056 315.775 146.056V142.563C315.775 142.563 313.274 140.405 313.383 138.57C313.482 136.896 315.775 135.076 315.775 135.076V130.584C315.775 130.584 313.143 128.413 313.383 126.591C313.581 125.082 315.775 123.596 315.775 123.596V120.601C315.775 120.601 313.274 118.444 313.383 116.608C313.482 114.935 315.775 113.115 315.775 113.115V108.123C315.775 108.123 313.263 106.302 313.383 104.63C313.491 103.111 315.775 101.635 315.775 101.635V97.6419C315.775 97.6419 313.143 95.4708 313.383 93.649C313.581 92.1407 315.775 90.6543 315.775 90.6543V87.1605C315.775 87.1605 312.303 84.8871 312.426 82.6684C312.54 80.5999 315.775 78.6755 315.775 78.6755V73.6843C315.775 73.6843 312.549 72.1158 312.426 70.1905C312.293 68.1231 315.775 66.1975 315.775 66.1975V62.7037C315.775 62.7037 313.383 61.5864 313.383 60.2081C313.383 58.8299 315.775 57.7125 315.775 57.7125V54.2187C315.775 54.2187 313.118 52.3788 313.383 50.7249C313.6 49.3654 315.775 48.2293 315.775 48.2293V44.7355C315.775 44.7355 313.446 43.6166 313.383 42.2399C313.331 41.1046 314.818 39.7443 314.818 39.7443V36.7496C314.818 36.7496 312.98 35.4965 312.904 33.7549C312.828 32.0133 314.818 30.7602 314.818 30.7602V27.2664C314.818 27.2664 312.426 25.794 312.426 24.2717C312.426 22.7493 314.818 21.277 314.818 21.277L315.297 20.7778C315.297 14.2893 315.297 14.2893 309.076 13.7902C309.076 13.7902 307.311 17.7832 304.769 17.7832C302.228 17.7832 302.045 13.8983 299.506 13.7902C296.813 13.6756 296.458 17.7832 293.763 17.7832C291.068 17.7832 290.672 13.2848 288.021 13.7902C286.067 14.1628 286.101 16.707 284.193 17.284C281.222 18.1825 280.072 13.2965 277.015 13.7902C275.114 14.0973 274.62 16.0609 272.708 16.2858C270.294 16.5698 269.382 13.5264 266.966 13.7902C264.438 14.0662 264.242 17.675 261.702 17.7832C259.01 17.8978 258.655 13.7279 255.96 13.7902C253.524 13.8466 253.131 17.1858 250.696 17.284C248.102 17.3887 247.537 13.5165 244.954 13.7902C242.573 14.0425 242.562 17.7832 240.169 17.7832C237.776 17.7832 237.759 14.0967 235.384 13.7902C232.553 13.4249 232.007 18.0124 229.163 17.7832C226.629 17.5788 226.433 13.9945 223.899 13.7902C221.055 13.5609 220.523 18.0124 217.679 17.7832C215.144 17.5788 214.955 13.712 212.415 13.7902C210.135 13.8604 209.895 17.0068 207.63 17.284C204.889 17.6194 204.149 13.4549 201.409 13.7902C199.143 14.0674 198.905 17.284 196.624 17.284C194.343 17.284 194.104 14.0674 191.838 13.7902C189.098 13.4549 188.369 17.4933 185.618 17.284C183.188 17.0992 182.788 13.6784 180.354 13.7902C178.075 13.8949 177.848 17.1794 175.569 17.284C173.135 17.3958 172.732 14.0125 170.305 13.7902C167.303 13.5154 166.612 17.9994 163.606 17.7832C160.917 17.5897 160.533 13.4017 157.863 13.7902C155.635 14.1146 155.796 17.5539 153.557 17.7832C151.027 18.0421 150.831 13.942 148.293 13.7902C145.701 13.6352 145.145 17.3887 142.551 17.284C140.116 17.1858 139.724 13.7902 137.287 13.7902C134.85 13.7902 134.458 17.1858 132.023 17.284C129.429 17.3887 128.868 13.5667 126.281 13.7902C124.008 13.9866 123.775 17.1794 121.496 17.284C119.062 17.3958 118.662 13.975 116.232 13.7902C113.48 13.5809 112.77 17.284 110.011 17.284C107.252 17.284 106.501 13.2544 103.791 13.7902C101.58 14.2272 101.713 17.4588 99.4838 17.7832C96.8146 18.1716 96.4305 13.5988 93.7416 13.7902C91.4658 13.9522 91.2297 17.0876 88.9564 17.284C86.3691 17.5076 85.8083 13.6856 83.2141 13.7902C80.7794 13.8884 80.3869 17.284 77.9504 17.284C75.5139 17.284 75.1232 13.7902 72.6867 13.7902C70.2501 13.7902 69.8595 17.284 67.423 17.284C64.9864 17.284 64.5958 13.7902 62.1592 13.7902C59.7227 13.7902 59.3302 17.1858 56.8955 17.284C54.3013 17.3887 53.7265 13.4312 51.1532 13.7902C49.0414 14.0849 48.9343 17.728 46.8466 17.284C45.1584 16.925 45.5103 14.6066 43.9754 13.7902C42.1442 12.8162 40.6601 13.1069 38.7117 13.7902C36.6921 14.4985 36.5357 17.284 34.405 17.284C32.2743 17.284 32.0124 13.7902 30.0983 13.7902C28.1843 13.7902 27.7491 18.931 25.3131 18.2823Z" fill="#C4B4A4"/>
</g>
<g filter="url(#filter1_n_6_265)">
<rect x="44.1919" y="44" width="239.708" height="129" fill="#D47DA0"/>
</g>
<path d="M295.15 32.75V184.25H32.9419V32.75H295.15Z" stroke="#787D32" stroke-width="22.5"/>
<g id="bottom_inner" data-figma-trr="l10u1.7-0f">
<path d="M31.6217 180.896C32.3911 179.127 32.9297 178.357 32.9297 178.357C32.9297 178.357 33.4683 179.204 34.1607 180.896C34.8532 182.589 35.6226 187.436 32.9297 187.436C30.2368 187.436 30.8523 182.666 31.6217 180.896Z" fill="#EDDDCE"/>
<path d="M32.9297 187.975C32.9297 187.975 32.2372 188.359 31.6987 188.821C31.3416 189.127 31.0831 189.898 31.0831 189.898C31.0831 189.898 31.0923 190.312 31.4678 190.668C31.8311 191.011 32.9297 191.668 32.9297 191.668C32.9297 191.668 34.0163 191.036 34.3915 190.668C34.7485 190.317 34.7762 189.898 34.7762 189.898C34.7762 189.898 34.5143 189.175 34.1607 188.821C33.6991 188.359 32.9297 187.975 32.9297 187.975Z" fill="#EDDDCE"/>
<path fill-rule="evenodd" clip-rule="evenodd" d="M35.084 190.283C35.084 190.283 35.7764 190.668 36.5458 190.821C37.1967 190.952 38.1616 190.975 38.1616 190.975C38.1616 190.975 37.6999 189.821 36.9305 189.283C35.9419 188.591 34.0068 188.205 34.0068 188.205C34.0068 188.205 34.8082 188.69 35.0071 189.206C35.1481 189.571 35.084 190.283 35.084 190.283Z" fill="#EDDDCE"/>
<path d="M36.6997 185.205C35.7231 186.449 33.5452 187.744 33.5452 187.744C33.5452 187.744 36.9534 187.882 38.6232 186.744C39.239 186.324 39.7773 185.205 40.0851 184.128C40.3668 183.142 41.47 181.896 41.47 181.896C41.47 181.896 39.3801 181.823 38.3154 182.897C37.9528 183.262 37.645 183.758 37.343 184.244C37.1314 184.585 36.9226 184.921 36.6997 185.205Z" fill="#EDDDCE"/>
<path d="M36.1611 180.281C35.2635 180.819 34.9301 181.666 34.9301 181.666C34.9301 181.666 35.2835 183.037 35.3148 183.897C35.3526 184.934 34.8532 186.436 34.8532 186.436C34.8532 186.436 36.5594 184.9 36.9305 184.282C37.3353 183.607 37.5627 182.518 37.7681 181.534C37.797 181.396 37.8254 181.26 37.8538 181.127C38.0846 180.05 38.3154 179.588 38.3154 179.588C38.3154 179.588 37.0588 179.742 36.1611 180.281Z" fill="#EDDDCE"/>
<path fill-rule="evenodd" clip-rule="evenodd" d="M30.7754 190.283C30.7754 190.283 30.0829 190.668 29.3135 190.821C28.6627 190.952 27.6978 190.975 27.6978 190.975C27.6978 190.975 28.1594 189.821 28.9288 189.283C29.9174 188.591 31.8525 188.205 31.8525 188.205C31.8525 188.205 31.0512 188.69 30.8523 189.206C30.7113 189.571 30.7754 190.283 30.7754 190.283Z" fill="#EDDDCE"/>
<path d="M29.1597 185.204C30.1363 186.448 32.3142 187.743 32.3142 187.743C32.3142 187.743 28.906 187.882 27.2362 186.743C26.6204 186.323 26.0821 185.204 25.7743 184.127C25.4926 183.141 24.3894 181.896 24.3894 181.896C24.3894 181.896 26.4793 181.822 27.5439 182.896C27.9066 183.262 28.2144 183.757 28.5164 184.244C28.728 184.584 28.9368 184.921 29.1597 185.204Z" fill="#EDDDCE"/>
<path d="M29.6982 180.281C30.5959 180.819 30.9293 181.666 30.9293 181.666C30.9293 181.666 30.5759 183.037 30.5446 183.897C30.5068 184.934 31.0062 186.436 31.0062 186.436C31.0062 186.436 29.3 184.9 28.9288 184.282C28.524 183.607 28.2967 182.518 28.0912 181.534C28.0624 181.396 28.034 181.26 28.0056 181.127C27.7747 180.05 27.5439 179.588 27.5439 179.588C27.5439 179.588 28.8006 179.742 29.6982 180.281Z" fill="#EDDDCE"/>
</g>
<use xlink:href="#bottom_inner" transform="translate(29.037)"/>
<use xlink:href="#bottom_inner" transform="translate(58.0739)"/>
<use xlink:href="#bottom_inner" transform="translate(87.1109)"/>
<use xlink:href="#bottom_inner" transform="translate(116.148)"/>
<use xlink:href="#bottom_inner" transform="translate(145.185)"/>
<use xlink:href="#bottom_inner" transform="translate(174.222)"/>
<use xlink:href="#bottom_inner" transform="translate(203.259)"/>
<use xlink:href="#bottom_inner" transform="translate(232.296)"/>
<use xlink:href="#bottom_inner" transform="translate(261.333)"/>
<g id="right_inner" data-figma-trr="l5u1.9-0f">
<path d="M293.116 53.8037C293.885 52.0341 294.424 51.2647 294.424 51.2647C294.424 51.2647 294.962 52.1111 295.655 53.8037C296.347 55.4964 297.116 60.3436 294.424 60.3436C291.731 60.3436 292.346 55.5733 293.116 53.8037Z" fill="#EDDDCE"/>
<path d="M294.424 60.8822C294.424 60.8822 293.731 61.2669 293.193 61.7285C292.835 62.0346 292.577 62.8057 292.577 62.8057C292.577 62.8057 292.586 63.2198 292.962 63.575C293.325 63.9187 294.424 64.5753 294.424 64.5753C294.424 64.5753 295.51 63.9431 295.885 63.575C296.242 63.2249 296.27 62.8057 296.27 62.8057C296.27 62.8057 296.008 62.0821 295.655 61.7285C295.193 61.2669 294.424 60.8822 294.424 60.8822Z" fill="#EDDDCE"/>
<path fill-rule="evenodd" clip-rule="evenodd" d="M296.578 63.1903C296.578 63.1903 297.27 63.575 298.04 63.7289C298.691 63.8591 299.655 63.8828 299.655 63.8828C299.655 63.8828 299.194 62.7287 298.424 62.1901C297.436 61.4981 295.501 61.113 295.501 61.113C295.501 61.113 296.302 61.5978 296.501 62.1132C296.642 62.4787 296.578 63.1903 296.578 63.1903Z" fill="#EDDDCE"/>
<path d="M298.194 58.1123C297.217 59.3561 295.039 60.6513 295.039 60.6513C295.039 60.6513 298.447 60.79 300.117 59.6511C300.733 59.2312 301.271 58.1123 301.579 57.0352C301.861 56.0491 302.964 54.8039 302.964 54.8039C302.964 54.8039 300.874 54.7302 299.809 55.8042C299.447 56.17 299.139 56.6655 298.837 57.1517C298.625 57.4924 298.416 57.8285 298.194 58.1123Z" fill="#EDDDCE"/>
<path d="M297.655 53.1882C296.757 53.7268 296.424 54.5731 296.424 54.5731C296.424 54.5731 296.777 55.9445 296.809 56.8044C296.846 57.8411 296.347 59.3434 296.347 59.3434C296.347 59.3434 298.053 57.8076 298.424 57.1891C298.829 56.5144 299.057 55.4256 299.262 54.4414C299.291 54.3033 299.319 54.1672 299.348 54.0346C299.579 52.9574 299.809 52.4958 299.809 52.4958C299.809 52.4958 298.553 52.6496 297.655 53.1882Z" fill="#EDDDCE"/>
<path fill-rule="evenodd" clip-rule="evenodd" d="M292.269 63.1903C292.269 63.1903 291.577 63.575 290.807 63.7289C290.157 63.8591 289.192 63.8828 289.192 63.8828C289.192 63.8828 289.653 62.7287 290.423 62.1901C291.411 61.4981 293.346 61.113 293.346 61.113C293.346 61.113 292.545 61.5978 292.346 62.1132C292.205 62.4787 292.269 63.1903 292.269 63.1903Z" fill="#EDDDCE"/>
<path d="M290.654 58.1119C291.63 59.3557 293.808 60.6509 293.808 60.6509C293.808 60.6509 290.4 60.7895 288.73 59.6507C288.114 59.2307 287.576 58.1119 287.268 57.0347C286.986 56.0486 285.883 54.8035 285.883 54.8035C285.883 54.8035 287.973 54.7298 289.038 55.8037C289.4 56.1695 289.708 56.665 290.01 57.1513C290.222 57.4919 290.431 57.828 290.654 58.1119Z" fill="#EDDDCE"/>
<path d="M291.192 53.1882C292.09 53.7268 292.423 54.5731 292.423 54.5731C292.423 54.5731 292.07 55.9445 292.038 56.8044C292.001 57.8411 292.5 59.3434 292.5 59.3434C292.5 59.3434 290.794 57.8076 290.423 57.1891C290.018 56.5144 289.791 55.4256 289.585 54.4414C289.556 54.3033 289.528 54.1672 289.499 54.0346C289.269 52.9574 289.038 52.4958 289.038 52.4958C289.038 52.4958 290.294 52.6496 291.192 53.1882Z" fill="#EDDDCE"/>
</g>
<use xlink:href="#right_inner" transform="translate(0 25.29)"/>
<use xlink:href="#right_inner" transform="translate(0 50.58)"/>
<use xlink:href="#right_inner" transform="translate(0 75.87)"/>
<use xlink:href="#right_inner" transform="translate(0 101.16)"/>
<g id="left_inner" data-figma-trr="l5u1.9-0f">
<path d="M31.6217 54.789C32.3911 53.0194 32.9297 52.25 32.9297 52.25C32.9297 52.25 33.4683 53.0963 34.1607 54.789C34.8532 56.4817 35.6226 61.3289 32.9297 61.3289C30.2368 61.3289 30.8523 56.5586 31.6217 54.789Z" fill="#EDDDCE"/>
<path d="M32.9297 61.8674C32.9297 61.8674 32.2372 62.2521 31.6987 62.7138C31.3416 63.0198 31.0831 63.7909 31.0831 63.7909C31.0831 63.7909 31.0923 64.205 31.4678 64.5603C31.8311 64.904 32.9297 65.5605 32.9297 65.5605C32.9297 65.5605 34.0163 64.9284 34.3915 64.5603C34.7485 64.2101 34.7762 63.7909 34.7762 63.7909C34.7762 63.7909 34.5143 63.0674 34.1607 62.7138C33.6991 62.2521 32.9297 61.8674 32.9297 61.8674Z" fill="#EDDDCE"/>
<path fill-rule="evenodd" clip-rule="evenodd" d="M35.084 64.1756C35.084 64.1756 35.7764 64.5603 36.5458 64.7142C37.1967 64.8444 38.1616 64.8681 38.1616 64.8681C38.1616 64.8681 37.6999 63.714 36.9305 63.1754C35.9419 62.4834 34.0068 62.0983 34.0068 62.0983C34.0068 62.0983 34.8082 62.5831 35.0071 63.0985C35.1481 63.464 35.084 64.1756 35.084 64.1756Z" fill="#EDDDCE"/>
<path d="M36.6997 59.0976C35.7231 60.3414 33.5452 61.6366 33.5452 61.6366C33.5452 61.6366 36.9534 61.7752 38.6232 60.6364C39.239 60.2164 39.7773 59.0976 40.0851 58.0205C40.3668 57.0344 41.47 55.7892 41.47 55.7892C41.47 55.7892 39.3801 55.7155 38.3154 56.7894C37.9528 57.1553 37.645 57.6508 37.343 58.137C37.1314 58.4777 36.9226 58.8138 36.6997 59.0976Z" fill="#EDDDCE"/>
<path d="M36.1611 54.1735C35.2635 54.7121 34.9301 55.5584 34.9301 55.5584C34.9301 55.5584 35.2835 56.9298 35.3148 57.7896C35.3526 58.8263 34.8532 60.3286 34.8532 60.3286C34.8532 60.3286 36.5594 58.7929 36.9305 58.1743C37.3353 57.4997 37.5627 56.4108 37.7681 55.4267C37.797 55.2885 37.8254 55.1524 37.8538 55.0198C38.0846 53.9427 38.3154 53.481 38.3154 53.481C38.3154 53.481 37.0588 53.6349 36.1611 54.1735Z" fill="#EDDDCE"/>
<path fill-rule="evenodd" clip-rule="evenodd" d="M30.7754 64.1756C30.7754 64.1756 30.0829 64.5603 29.3135 64.7142C28.6627 64.8444 27.6978 64.8681 27.6978 64.8681C27.6978 64.8681 28.1594 63.714 28.9288 63.1754C29.9174 62.4834 31.8525 62.0983 31.8525 62.0983C31.8525 62.0983 31.0512 62.5831 30.8523 63.0985C30.7113 63.464 30.7754 64.1756 30.7754 64.1756Z" fill="#EDDDCE"/>
<path d="M29.1597 59.0971C30.1363 60.3409 32.3142 61.6361 32.3142 61.6361C32.3142 61.6361 28.906 61.7748 27.2362 60.6359C26.6204 60.216 26.0821 59.0971 25.7743 58.02C25.4926 57.0339 24.3894 55.7888 24.3894 55.7888C24.3894 55.7888 26.4793 55.715 27.5439 56.789C27.9066 57.1548 28.2144 57.6503 28.5164 58.1365C28.728 58.4772 28.9368 58.8133 29.1597 59.0971Z" fill="#EDDDCE"/>
<path d="M29.6982 54.1735C30.5959 54.7121 30.9293 55.5584 30.9293 55.5584C30.9293 55.5584 30.5759 56.9298 30.5446 57.7896C30.5068 58.8263 31.0062 60.3286 31.0062 60.3286C31.0062 60.3286 29.3 58.7929 28.9288 58.1743C28.524 57.4997 28.2967 56.4108 28.0912 55.4267C28.0624 55.2885 28.034 55.1524 28.0056 55.0198C27.7747 53.9427 27.5439 53.481 27.5439 53.481C27.5439 53.481 28.8006 53.6349 29.6982 54.1735Z" fill="#EDDDCE"/>
</g>
<use xlink:href="#left_inner" transform="translate(0 25.29)"/>
<use xlink:href="#left_inner" transform="translate(0 50.58)"/>
<use xlink:href="#left_inner" transform="translate(0 75.87)"/>
<use xlink:href="#left_inner" transform="translate(0 101.16)"/>
<g id="top_inner" data-figma-trr="l10u1.7-0f">
<path d="M31.6217 29.539C32.3911 27.7694 32.9297 27 32.9297 27C32.9297 27 33.4683 27.8463 34.1607 29.539C34.8532 31.2317 35.6226 36.0789 32.9297 36.0789C30.2368 36.0789 30.8523 31.3086 31.6217 29.539Z" fill="#EDDDCE"/>
<path d="M32.9297 36.6174C32.9297 36.6174 32.2372 37.0021 31.6987 37.4638C31.3416 37.7698 31.0831 38.5409 31.0831 38.5409C31.0831 38.5409 31.0923 38.955 31.4678 39.3103C31.8311 39.654 32.9297 40.3105 32.9297 40.3105C32.9297 40.3105 34.0163 39.6784 34.3915 39.3103C34.7485 38.9601 34.7762 38.5409 34.7762 38.5409C34.7762 38.5409 34.5143 37.8174 34.1607 37.4638C33.6991 37.0021 32.9297 36.6174 32.9297 36.6174Z" fill="#EDDDCE"/>
<path fill-rule="evenodd" clip-rule="evenodd" d="M35.084 38.9256C35.084 38.9256 35.7764 39.3103 36.5458 39.4642C37.1967 39.5944 38.1616 39.6181 38.1616 39.6181C38.1616 39.6181 37.6999 38.464 36.9305 37.9254C35.9419 37.2334 34.0068 36.8483 34.0068 36.8483C34.0068 36.8483 34.8082 37.3331 35.0071 37.8485C35.1481 38.214 35.084 38.9256 35.084 38.9256Z" fill="#EDDDCE"/>
<path d="M36.6997 33.8476C35.7231 35.0914 33.5452 36.3866 33.5452 36.3866C33.5452 36.3866 36.9534 36.5252 38.6232 35.3864C39.239 34.9664 39.7773 33.8476 40.0851 32.7705C40.3668 31.7844 41.47 30.5392 41.47 30.5392C41.47 30.5392 39.3801 30.4655 38.3154 31.5394C37.9528 31.9053 37.645 32.4008 37.343 32.887C37.1314 33.2277 36.9226 33.5638 36.6997 33.8476Z" fill="#EDDDCE"/>
<path d="M36.1611 28.9235C35.2635 29.4621 34.9301 30.3084 34.9301 30.3084C34.9301 30.3084 35.2835 31.6798 35.3148 32.5396C35.3526 33.5763 34.8532 35.0786 34.8532 35.0786C34.8532 35.0786 36.5594 33.5429 36.9305 32.9243C37.3353 32.2497 37.5627 31.1608 37.7681 30.1767C37.797 30.0385 37.8254 29.9024 37.8538 29.7698C38.0846 28.6927 38.3154 28.231 38.3154 28.231C38.3154 28.231 37.0588 28.3849 36.1611 28.9235Z" fill="#EDDDCE"/>
<path fill-rule="evenodd" clip-rule="evenodd" d="M30.7754 38.9256C30.7754 38.9256 30.0829 39.3103 29.3135 39.4642C28.6627 39.5944 27.6978 39.6181 27.6978 39.6181C27.6978 39.6181 28.1594 38.464 28.9288 37.9254C29.9174 37.2334 31.8525 36.8483 31.8525 36.8483C31.8525 36.8483 31.0512 37.3331 30.8523 37.8485C30.7113 38.214 30.7754 38.9256 30.7754 38.9256Z" fill="#EDDDCE"/>
<path d="M29.1597 33.8471C30.1363 35.0909 32.3142 36.3861 32.3142 36.3861C32.3142 36.3861 28.906 36.5248 27.2362 35.3859C26.6204 34.966 26.0821 33.8471 25.7743 32.77C25.4926 31.7839 24.3894 30.5388 24.3894 30.5388C24.3894 30.5388 26.4793 30.465 27.5439 31.539C27.9066 31.9048 28.2144 32.4003 28.5164 32.8865C28.728 33.2272 28.9368 33.5633 29.1597 33.8471Z" fill="#EDDDCE"/>
<path d="M29.6982 28.9235C30.5959 29.4621 30.9293 30.3084 30.9293 30.3084C30.9293 30.3084 30.5759 31.6798 30.5446 32.5396C30.5068 33.5763 31.0062 35.0786 31.0062 35.0786C31.0062 35.0786 29.3 33.5429 28.9288 32.9243C28.524 32.2497 28.2967 31.1608 28.0912 30.1767C28.0624 30.0385 28.034 29.9024 28.0056 29.7698C27.7747 28.6927 27.5439 28.231 27.5439 28.231C27.5439 28.231 28.8006 28.3849 29.6982 28.9235Z" fill="#EDDDCE"/>
</g>
<use xlink:href="#top_inner" transform="translate(29.037)"/>
<use xlink:href="#top_inner" transform="translate(58.0739)"/>
<use xlink:href="#top_inner" transform="translate(87.1109)"/>
<use xlink:href="#top_inner" transform="translate(116.148)"/>
<use xlink:href="#top_inner" transform="translate(145.185)"/>
<use xlink:href="#top_inner" transform="translate(174.222)"/>
<use xlink:href="#top_inner" transform="translate(203.259)"/>
<use xlink:href="#top_inner" transform="translate(232.296)"/>
<use xlink:href="#top_inner" transform="translate(261.333)"/>
<g filter="url(#filter2_d_6_265)">
<path d="M66.37 78.7347V67.8867H140.837V78.7347H119.819V93.8767H94.846C93.1133 93.8767 91.682 95.3457 90.552 98.2837C89.196 101.749 89.2337 104.499 90.665 106.533C91.6443 107.964 93.3393 108.378 95.75 107.776C96.428 107.625 99.027 106.872 103.547 105.516C108.067 104.084 111.871 103.03 114.96 102.352C118.124 101.598 119.932 101.41 120.384 101.787C125.13 105.779 129.725 111.203 134.17 118.059C134.622 118.812 134.886 119.791 134.961 120.997C135.036 122.127 134.81 123.37 134.283 124.726C133.831 126.082 133.153 127.475 132.249 128.907C131.345 130.338 130.102 131.732 128.52 133.088C127.013 134.368 125.281 135.536 123.322 136.591C121.363 137.645 118.99 138.474 116.203 139.077C113.491 139.755 110.553 140.094 107.389 140.094C103.698 140.094 99.9687 139.303 96.202 137.721C92.4353 136.063 89.2337 134.218 86.597 132.184C83.9603 130.15 81.3613 127.739 78.8 124.952C76.314 122.164 74.506 120.017 73.376 118.511C72.3213 117.004 71.3797 115.61 70.551 114.33L72.811 112.183C74.0917 113.689 75.4853 115.196 76.992 116.703C78.574 118.209 80.7587 120.13 83.546 122.466C86.3333 124.801 89.4597 126.684 92.925 128.116C96.4657 129.547 99.8933 130.263 103.208 130.263C107.879 130.263 112.286 129.246 116.429 127.212C120.572 125.102 123.247 122.805 124.452 120.319C125.733 117.833 125.582 115.497 124 113.313C122.795 112.107 120.798 111.881 118.011 112.635C115.224 113.388 112.436 114.518 109.649 116.025C106.862 117.531 103.999 118.699 101.061 119.528C98.1983 120.281 96.089 120.13 94.733 119.076C86.597 112.371 81.1353 107.587 78.348 104.725C76.992 102.766 76.54 100.355 76.992 97.4927C77.5193 94.63 78.7247 91.918 80.608 89.3567C82.5667 86.72 84.5253 85.3263 86.484 85.1757L107.163 83.9327V78.7347H66.37ZM139.657 78.7347V67.8867H170.958V78.7347H162.257V144.162L148.245 137.834V78.7347H139.657ZM167.517 78.7347V67.8867H267.861V78.7347H227.068V91.3907C231.438 87.5487 236.786 85.7407 243.114 85.9667C245.224 86.042 248.576 88.4903 253.171 93.3117C257.842 98.133 261.383 102.314 263.793 105.855C266.355 109.772 265.526 114.405 261.307 119.754C257.164 125.027 251.891 128.756 245.487 130.941L234.865 121.223C243.001 118.36 248.312 115.121 250.798 111.505C252.531 109.019 253.435 106.683 253.51 104.499C253.661 102.314 253.096 100.694 251.815 99.6397C250.61 98.5097 248.953 97.794 246.843 97.4927C244.734 97.1913 242.323 97.681 239.611 98.9617C233.208 101.9 229.027 106.382 227.068 112.409V144.162L212.943 137.834V122.014C208.423 127.287 203.828 129.924 199.157 129.924C190.193 129.924 181.981 122.692 174.523 108.228C172.941 105.214 173.883 101.598 177.348 97.3797C180.889 93.161 185.145 89.8463 190.117 87.4357C195.089 85.025 198.668 84.5353 200.852 85.9667C204.619 88.754 208.649 91.5037 212.943 94.2157V78.7347H167.517ZM185.484 115.234C186.313 116.213 187.594 117.004 189.326 117.607C191.059 118.209 193.168 118.548 195.654 118.624C198.14 118.624 200.928 117.682 204.016 115.799C207.18 113.915 210.156 111.09 212.943 107.324V100.205C207.218 97.342 202.02 96.7017 197.349 98.2837C192.679 99.8657 189.025 102.578 186.388 106.42C183.827 110.262 183.526 113.2 185.484 115.234Z" fill="#F0C864"/>
</g>
</g>
<defs>
<filter id="filter0_dn_6_265" x="-1.68359" y="3" width="331.459" height="221" filterUnits="userSpaceOnUse" color-interpolation-filters="sRGB">
<feFlood flood-opacity="0" result="BackgroundImageFix"/>
<feColorMatrix in="SourceAlpha" type="matrix" values="0 0 0 0 0 0 0 0 0 0 0 0 0 0 0 0 0 0 127 0" result="hardAlpha"/>
<feOffset dy="4"/>
<feGaussianBlur stdDeviation="7"/>
<feComposite in2="hardAlpha" operator="out"/>
<feColorMatrix type="matrix" values="0 0 0 0 0 0 0 0 0 0 0 0 0 0 0 0 0 0 0.25 0"/>
<feBlend mode="normal" in2="BackgroundImageFix" result="effect1_dropShadow_6_265"/>
<feBlend mode="normal" in="SourceGraphic" in2="BackgroundImageFix" result="shape"/>
<feTurbulence type="fractalNoise" baseFrequency="5.5555553436279297 5.5555553436279297" stitchTiles="stitch" numOctaves="3" result="noise" seed="5220" />
<feColorMatrix in="noise" type="luminanceToAlpha" result="alphaNoise" />
<feComponentTransfer in="alphaNoise" result="coloredNoise1">
<feFuncA type="discrete" tableValues="0 0 0 0 1 1 1 1 1 1 1 1 1 1 1 1 1 1 1 1 1 1 1 1 1 1 1 1 1 1 1 1 1 1 1 1 1 1 1 1 1 1 1 1 1 1 0 0 0 0 0 0 0 0 0 0 0 0 0 0 0 0 0 0 0 0 0 0 0 0 0 0 0 0 0 0 0 0 0 0 0 0 0 0 0 0 0 0 0 0 0 0 0 0 0 0 0 0 0 0 "/>
</feComponentTransfer>
<feComposite operator="in" in2="shape" in="coloredNoise1" result="noise1Clipped" />
<feFlood flood-color="rgba(194, 147, 105, 0.5)" result="color1Flood" />
<feComposite operator="in" in2="noise1Clipped" in="color1Flood" result="color1" />
<feMerge result="effect2_noise_6_265">
<feMergeNode in="shape" />
<feMergeNode in="color1" />
</feMerge>
<feBlend mode="normal" in="effect2_noise_6_265" in2="effect1_dropShadow_6_265" result="effect2_noise_6_265"/>
</filter>
<filter id="filter1_n_6_265" x="44.1919" y="44" width="239.708" height="129" filterUnits="userSpaceOnUse" color-interpolation-filters="sRGB">
<feFlood flood-opacity="0" result="BackgroundImageFix"/>
<feBlend mode="normal" in="SourceGraphic" in2="BackgroundImageFix" result="shape"/>
<feTurbulence type="fractalNoise" baseFrequency="2 2" stitchTiles="stitch" numOctaves="3" result="noise" seed="5220" />
<feColorMatrix in="noise" type="luminanceToAlpha" result="alphaNoise" />
<feComponentTransfer in="alphaNoise" result="coloredNoise1">
<feFuncA type="discrete" tableValues="1 1 1 1 1 1 1 1 1 1 1 1 1 1 1 1 1 1 1 1 1 1 1 1 1 1 1 1 1 1 1 1 1 1 1 1 1 1 1 1 1 1 1 1 1 1 1 1 1 1 1 0 0 0 0 0 0 0 0 0 0 0 0 0 0 0 0 0 0 0 0 0 0 0 0 0 0 0 0 0 0 0 0 0 0 0 0 0 0 0 0 0 0 0 0 0 0 0 0 0 "/>
</feComponentTransfer>
<feComposite operator="in" in2="shape" in="coloredNoise1" result="noise1Clipped" />
<feFlood flood-color="rgba(0, 0, 0, 0.25)" result="color1Flood" />
<feComposite operator="in" in2="noise1Clipped" in="color1Flood" result="color1" />
<feMerge result="effect1_noise_6_265">
<feMergeNode in="shape" />
<feMergeNode in="color1" />
</feMerge>
</filter>
<filter id="filter2_d_6_265" x="62.37" y="67.8867" width="209.491" height="84.275" filterUnits="userSpaceOnUse" color-interpolation-filters="sRGB">
<feFlood flood-opacity="0" result="BackgroundImageFix"/>
<feColorMatrix in="SourceAlpha" type="matrix" values="0 0 0 0 0 0 0 0 0 0 0 0 0 0 0 0 0 0 127 0" result="hardAlpha"/>
<feOffset dy="4"/>
<feGaussianBlur stdDeviation="2"/>
<feComposite in2="hardAlpha" operator="out"/>
<feColorMatrix type="matrix" values="0 0 0 0 0 0 0 0 0 0 0 0 0 0 0 0 0 0 0.25 0"/>
<feBlend mode="normal" in2="BackgroundImageFix" result="effect1_dropShadow_6_265"/>
<feBlend mode="normal" in="SourceGraphic" in2="effect1_dropShadow_6_265" result="shape"/>
</filter>
<clipPath id="clip0_6_265">
<rect width="336" height="220" fill="white"/>
</clipPath>
</defs>
</svg>
