<svg width="103" height="79" viewBox="0 0 103 79" fill="none" xmlns="http://www.w3.org/2000/svg">
<path d="M42.9684 68.0225C43.2497 68.3062 43.4812 68.6701 43.6537 69.1359C42.0997 69.1359 40.3979 69.846 39.7319 70.734L40.1676 70.884C40.3144 70.9317 40.4266 70.9684 40.3687 70.9532C40.5907 71.3973 40.6566 71.4705 41.4336 71.4705C44.6527 71.4705 46.2077 71.9149 48.9828 71.4708C49.8706 71.8037 50.7584 72.1367 51.7571 72.3586C52.4231 71.4706 53.2001 70.8045 54.7541 70.8045C53.6441 67.8074 50.0919 69.0284 46.5398 68.6954C45.5034 68.0045 44.2952 67.9586 42.9684 68.0225Z" fill="#4A4037"/>
<path d="M99.7213 70.8965C100.276 70.0085 101.608 71.0076 102.163 71.2296V73.0057C100.831 72.8947 98.0563 73.8938 97.2792 75.4478C96.7242 75.4478 97.0572 74.4488 96.3911 74.5598C95.7251 74.6708 95.6141 75.1148 95.1701 75.4478C90.0639 76.3359 87.0667 77.7789 81.5165 78.4449C80.5175 78.6669 80.6284 78.0009 79.9624 77.8899C79.1854 77.8899 79.0745 78.3339 78.4085 78.4449C74.5233 78.0009 68.529 79 64.7548 76.6689C62.9788 76.7799 62.4237 76.2249 61.0916 76.6689C59.6486 76.3359 58.7606 75.3368 57.4286 74.8928C56.3185 74.6708 55.7635 76.3359 55.3195 74.8928C54.9864 74.0048 55.9855 74.3378 56.5405 74.3378C56.8735 73.5608 57.4285 72.7837 58.0946 72.2287C66.5309 75.7808 77.4094 76.0028 87.5108 74.6707C89.2869 73.7827 90.9519 72.8947 93.616 72.8947C93.949 72.7837 94.2821 72.5616 94.1711 72.0066C96.7242 71.5626 98.5002 70.8965 100.498 71.4516C100.609 70.7855 100.054 70.8965 99.7213 70.8965Z" fill="#4A4037"/>
<path d="M100.387 58.131C101.719 58.464 100.498 59.7961 100.72 60.9061C92.617 63.7922 82.8485 66.3454 73.7461 65.7903C72.5251 66.0124 72.6361 65.0134 71.9701 64.9024C69.972 66.0124 67.8629 64.1253 66.5308 65.2353C65.9758 64.4583 63.9778 65.2353 64.0888 63.6812C60.5366 64.4583 57.6505 62.5713 57.0954 59.4631C62.4237 59.7962 67.6409 62.1272 73.5242 62.4602C80.2954 62.9042 85.8457 61.2391 92.284 60.3511C93.172 60.0181 94.06 59.6851 94.726 59.1301C96.8351 59.5741 98.2781 58.464 100.387 58.131Z" fill="#4A4037"/>
<path d="M3.25838 70.8965C4.03541 70.7855 4.59046 70.2306 4.81247 71.2296C5.92252 70.3416 8.58657 71.0076 8.91959 69.4535C10.0296 70.1196 10.2517 69.8975 11.9168 69.7865C12.5828 69.3425 11.5837 69.1205 12.2497 68.8985C13.3598 69.8976 13.6929 68.3435 14.6919 68.3435C14.6919 68.6765 14.1369 69.0095 14.6919 69.2315C17.356 68.8985 19.5761 69.2315 22.5732 68.3435C22.7952 68.7875 23.0172 69.2315 23.7942 69.2315C27.0134 69.2315 28.5675 69.6755 31.3426 69.2315C32.2306 69.5645 38.7329 70.512 39.7319 70.734C40.3979 69.846 42.0997 69.1359 43.6537 69.1359C43.4812 68.6701 43.2497 68.3062 42.9684 68.0225C42.0132 67.0593 33.9448 66.4503 32.1998 66.4884C31.1518 66.5113 30.0261 66.5619 28.9004 66.4563C27.2353 65.3463 25.1263 65.9013 22.7952 65.9013C22.0181 66.0123 22.2402 66.9004 21.2412 66.7894C20.7972 65.3464 17.245 65.6793 16.357 66.4563C12.4718 65.7903 8.58663 67.5664 4.81247 67.3444C4.59046 68.3435 3.81341 68.8985 2.70336 69.1205C2.37035 70.2305 3.36939 69.8975 3.25838 70.8965Z" fill="#4A4037"/>
<path d="M25.7924 53.0248C28.4565 51.3598 40.0009 55.245 43.6641 55.467C43.5531 56.5771 43.2201 57.4652 43.1091 58.4642C41.888 58.2422 33.7847 57.1321 33.4517 56.022C29.3446 56.022 22.9062 55.245 18.244 56.022C17.467 56.022 16.801 55.8 16.468 55.467C13.2488 56.9101 8.03165 56.577 5.25654 58.4641C3.59147 58.0201 2.81438 58.3531 1.59333 59.0191C0.816302 58.2421 2.03735 56.91 1.59333 55.689C2.92539 55.2449 2.70335 56.466 3.36938 56.5771C4.03541 56.5771 2.92536 55.8 3.36938 55.023C5.25646 54.4679 6.1446 54.4679 7.36565 53.4689C12.4719 53.8019 16.135 51.3598 20.6862 52.9138C22.2403 51.9148 24.0163 52.1368 25.7924 53.0248Z" fill="#4A4037"/>
<path fill-rule="evenodd" clip-rule="evenodd" d="M96.7243 47.4746C92.8391 49.3617 87.3998 51.2488 82.5156 51.1378C81.8496 51.4708 81.2946 51.8038 80.7396 52.0258C69.9721 52.4698 60.5367 50.8048 50.9903 47.8077C47.9932 48.1407 46.1061 46.1425 43.664 46.9196C43.22 46.4756 42.6649 46.0316 42.1099 45.6986C41.2219 45.4765 40.9999 46.0316 40.3339 46.0316C40.1119 44.6996 37.4478 45.9206 37.3368 44.4775C34.2287 43.7005 32.2306 44.1445 29.1224 43.2565C20.1311 42.8125 10.6956 43.5895 1.48227 46.0316C2.1483 45.3656 1.48227 45.0325 0.927246 44.8105C1.03825 44.3664 3.70231 44.0335 3.36929 45.1435C4.14632 44.9215 2.81432 43.8115 3.70236 43.3675C6.81049 43.1455 10.0296 40.0373 13.6928 41.2584C14.3588 41.0364 14.5808 40.3703 15.4688 40.3703C16.2459 40.3703 16.6899 40.4813 17.0229 40.9253C21.5741 39.4822 24.3492 41.3693 28.9003 39.7043C30.3434 41.3693 33.2296 39.5932 34.0067 41.4803C34.7837 41.7023 34.5617 40.9253 35.2277 40.9253C37.3368 41.3693 40.2229 42.4794 41.888 42.4794C44.2191 44.0335 49.7692 43.3675 52.2113 45.4766C52.7663 45.4766 52.9884 45.2546 53.0994 44.9216C56.8736 46.2536 61.8688 47.6967 65.8649 47.6967C66.531 47.4747 66.309 48.2517 66.753 48.2517C70.9712 47.8077 73.0803 50.1387 76.1884 48.5846C77.9645 48.6957 80.6285 49.3618 81.9606 48.2517C82.9596 48.1407 83.1816 48.6957 83.7366 48.8067C84.5137 48.3627 85.1797 48.0296 85.8457 47.5856C86.9558 48.1406 88.2878 46.5866 88.2878 47.9186C89.3978 46.8086 91.285 46.4756 92.8391 45.8095C93.2831 46.0315 92.8391 47.0306 93.3941 47.0306C93.9491 47.0306 94.3931 46.8085 94.6151 46.4755C94.5041 46.0315 94.2821 46.5865 93.727 46.4755C93.727 45.3655 94.6151 45.1435 95.2811 44.6995C96.3912 44.8105 96.8353 45.9205 96.7243 47.4746ZM34.2286 42.7015H33.6736V42.1465H34.2286V42.7015ZM17.2448 42.0353H16.6898C16.8008 41.8133 17.0229 41.5914 17.0229 41.1474C17.3559 41.1474 17.1339 41.7024 17.5779 41.7024C17.5779 42.0354 17.4668 42.0353 17.2448 42.0353Z" fill="#4A4037"/>
<path d="M8.19591 28.6448C8.08892 27.9781 8.42265 27.8691 8.53633 27.4258C9.75869 27.2111 9.64164 28.2095 10.307 28.3245C10.4227 27.5482 9.75594 27.6551 9.98329 26.7685C9.31661 26.8755 8.75895 27.3161 8.20728 26.7578C10.4354 25.4391 12.866 27.3409 14.8708 26.2429C15.0874 27.1322 14.422 27.0172 14.5284 27.7949C15.1957 27.5769 15.3122 26.6896 15.7589 26.2482C18.4222 26.3753 19.4205 26.4923 21.5329 25.9499C21.9729 26.6186 21.743 27.9494 22.4063 28.3974C22.5113 29.3971 21.6245 29.1698 21.5089 29.9461C19.6318 28.2697 16.5057 31.248 15.4111 28.6882C14.8561 28.6849 15.0734 29.4632 14.1867 29.2359C13.7461 28.6782 13.4157 28.2322 12.64 28.0055C12.0837 28.2242 11.7453 29.1102 12.6327 29.2265C11.4063 30.1072 9.86162 28.5438 8.19591 28.6448Z" fill="#4A4037"/>
<path d="M7.85754 29.531C6.19183 29.6319 4.97217 29.4026 3.86482 28.9519C3.65619 26.7305 5.76529 26.7433 7.54267 26.532C7.53464 27.864 8.30824 28.4236 7.85754 29.531Z" fill="#4A4037"/>
<path d="M101.608 29.6029C102.718 32.378 98.5004 33.599 96.7243 33.599C93.2832 36.0411 87.5108 36.1521 83.7367 38.1502C82.9597 37.9282 82.0716 37.7063 80.9616 37.8173C72.4142 39.7043 64.1999 36.8182 55.7636 36.9292C55.9856 36.3741 56.6515 36.7072 56.0965 36.0412C48.4372 33.9321 39.779 31.49 30.6766 29.936C30.4546 28.4929 30.4546 27.8268 31.2316 26.9388C33.1187 27.2718 36.0047 27.3828 38.2248 27.8269C39.4459 28.0489 40.4449 28.8259 41.5549 29.0479C42.11 29.1589 42.554 28.7148 43.109 28.7148C43.6641 28.8258 44.6631 29.4919 45.2182 29.6029C45.8842 29.8249 46.9942 29.492 46.9942 30.491C51.2124 30.269 55.7636 32.489 60.3147 33.4881C61.7578 33.8211 63.6449 33.7101 65.199 34.0431C67.5301 34.5981 71.5262 35.2641 74.8563 35.2641C76.9654 35.2641 78.9636 33.9321 80.6286 34.7091C83.4037 33.377 87.9549 33.71 90.286 31.934C94.6152 32.378 97.0572 29.9359 101.608 29.6029Z" fill="#4A4037"/>
<path fill-rule="evenodd" clip-rule="evenodd" d="M18.799 15.0613C19.465 15.5053 21.0191 15.0613 20.9081 16.2823C22.6841 15.6163 22.9061 15.3942 24.9042 15.9493C25.9032 16.0603 24.1272 15.0613 25.2373 15.0613C26.0143 14.8393 26.3472 15.1722 26.1252 15.9493C27.2353 15.8382 28.0123 15.1722 29.4554 15.3942C29.4554 15.9493 29.7884 16.0604 29.7884 16.6154C30.6765 16.0604 32.1195 15.6163 33.1186 16.6154C33.4516 16.2824 33.7847 16.0603 34.0067 15.7273C36.6708 16.6153 39.7788 17.1703 42.7759 17.5033C43.3309 18.0584 42.7759 17.8363 42.7759 18.7244C43.775 18.7244 44.219 18.1694 44.885 17.8364C45.8841 18.3914 48.1042 17.8364 48.5482 19.0574C50.6573 18.0584 52.3224 19.8344 53.9875 20.2785C54.8755 20.5005 55.7635 19.9455 55.7635 21.1665C55.9855 21.0555 56.3186 20.9445 56.3186 20.6115C56.9846 21.9436 58.2056 20.7226 58.7606 22.1656C59.6486 22.2766 59.6486 21.4996 60.5366 21.6106C60.9807 21.8326 60.5366 22.8316 61.0917 22.8316C62.0907 23.0536 61.5358 21.8325 62.3128 21.9435C63.5339 22.3875 64.9769 23.6087 66.5309 22.8316C66.7529 23.8307 67.752 24.0527 68.64 24.3857C69.4171 24.6077 69.1951 23.7196 69.5281 23.4976C70.3052 23.2756 70.1941 24.0526 70.7491 24.0526C72.6362 22.1656 75.7443 24.6077 78.6304 23.4976C78.6304 23.8306 78.7415 24.0526 78.9635 24.0526C81.2946 22.4986 84.8466 22.0545 87.7328 21.9435C87.7328 22.7206 87.1777 22.4985 87.7328 23.1646C88.6208 21.8325 89.842 20.8335 91.729 20.3894C92.7281 20.3894 93.061 22.0546 93.838 21.2775C94.06 18.9464 97.5012 18.3914 99.9433 19.1684C100.054 20.2785 99.6103 20.8336 99.3882 21.6106C96.8351 22.0546 94.393 22.6096 92.728 24.0526C88.6208 23.7196 87.0667 26.2728 83.2926 25.6067C82.7376 25.7177 83.0706 26.8277 82.0716 26.4947C81.5165 25.0516 79.7405 27.1607 78.7414 27.0497C79.8515 25.7177 77.1873 26.1618 76.6323 25.4958C76.2993 25.8288 75.9664 26.0507 75.7443 26.3837C74.7453 26.6057 74.8563 25.9397 74.1903 25.8287C73.5242 25.6067 73.7462 26.3837 73.3022 26.3837C69.417 26.7167 68.973 25.4957 65.4209 25.8287C63.7558 24.7186 58.3166 26.0508 57.2065 23.3866C56.3185 23.1646 56.0965 23.7196 55.4305 23.7196C55.7635 23.0535 56.7625 22.3876 55.9855 21.6106C54.6534 23.7197 51.5454 23.1646 50.2133 21.2775C48.1042 23.0536 44.3301 20.2785 41.777 20.7225V19.5015C38.4468 20.9445 33.7845 18.5024 30.5654 18.9465C30.3434 18.6134 29.8994 18.6134 30.0104 18.0584C28.9003 17.7254 29.1224 18.8354 28.2343 18.6134C28.0123 18.0584 27.3463 17.9474 27.0133 17.3924C26.1253 17.0594 26.4583 18.0584 26.4583 18.6134C25.2372 18.5024 24.5712 17.8364 23.6832 17.3924C22.6841 19.1684 21.2411 16.8374 20.6861 18.9465C19.132 17.6144 18.355 18.7244 16.4679 18.3914C16.4679 17.5034 16.2458 16.8374 15.5798 16.6154C14.5808 16.8374 15.4689 17.1703 15.2469 18.1693C13.6928 18.3914 13.1377 17.6143 13.1377 16.3933C14.2478 15.9493 16.8009 15.7273 17.1339 16.9483C17.4669 16.0603 18.4659 15.8383 18.799 15.0613ZM78.1863 24.8296C78.1863 24.4966 77.6313 24.4966 77.6313 24.8296C77.6313 25.1626 77.9643 24.9406 78.1863 24.8296ZM65.1989 24.4967C65.865 24.7187 66.531 23.7196 65.754 23.6086C65.754 24.0526 65.3099 24.0527 65.1989 24.4967ZM57.6506 22.9426C58.3166 23.0536 58.7606 22.8316 58.8716 22.3876C58.3166 22.3876 57.3175 22.0546 57.6506 22.9426ZM35.4495 17.1704C35.1165 17.1704 35.0055 16.7264 34.8945 17.1704C34.8945 17.5034 35.3385 17.6144 35.4495 17.1704Z" fill="#4A4037"/>
<path d="M7.92062 18.0584C7.80961 17.3923 6.14443 18.1694 6.69946 16.8374C7.25448 16.7263 7.69855 16.9484 7.58755 17.3924C8.14257 16.2823 10.0296 16.3934 10.9177 15.6163C11.9167 15.3943 11.8057 16.0603 12.4718 16.1713C12.6938 17.0594 12.0277 16.9484 12.1387 17.7254C10.8067 17.2814 10.1407 17.2814 9.14164 17.1704C8.80863 18.1695 10.0297 17.6144 10.6957 17.7254C10.1407 19.2795 11.6947 18.8354 12.2497 19.2794C11.9167 19.9454 10.3626 19.3905 9.47457 19.6125C9.36357 19.0574 8.80855 18.8354 8.91955 18.0584C7.58749 17.6144 8.03154 19.6124 7.1435 18.6134C7.1435 18.3914 7.4766 18.2804 7.92062 18.0584Z" fill="#4A4037"/>
<path d="M4.81243 18.3915C4.81243 17.6144 5.81144 18.2804 6.03345 18.3915C5.92245 18.6135 5.70052 18.7245 5.70052 18.9465H5.1455C5.1455 18.7245 5.03444 18.5025 4.81243 18.3915Z" fill="#4A4037"/>
<path d="M3.92439 18.0584C4.03539 19.1684 2.70336 18.8354 2.70336 19.8344C1.37131 19.3904 2.59233 17.8364 3.92439 18.0584Z" fill="#4A4037"/>
<path d="M4.47939 19.2794C5.03441 19.3904 5.14541 19.8345 5.03441 20.5006H3.81338C3.59138 19.6125 4.36838 19.8344 4.47939 19.2794Z" fill="#4A4037"/>
<path d="M30.0104 1.40769C30.8985 1.6297 30.5655 0.630662 31.5645 0.852671C32.4526 0.741666 33.1186 0.963675 33.3406 1.40769C36.6707 -0.590389 40.0009 3.62781 43.6641 2.96179C45.3291 3.84982 48.1043 3.62784 49.1033 5.0709C52.4335 5.51492 55.8745 5.73695 58.2056 7.18001C58.8717 7.06901 59.3157 6.73594 60.3147 6.84694C61.2028 7.17996 62.0908 7.51295 62.7568 8.06797C63.2008 7.95696 63.5339 7.62395 63.978 7.51295C65.865 8.734 68.0851 7.95696 70.0832 8.06797C70.1942 8.06797 70.4162 8.62299 70.6382 8.62299C72.1923 8.95601 74.6343 8.62299 76.4104 8.62299C77.7425 8.62299 79.2965 8.734 80.4066 8.62299C81.1836 8.51199 81.8496 7.84604 82.5157 7.73504C82.9597 7.73504 83.5147 8.17897 84.0698 8.06797C88.2879 7.29094 92.3951 5.95891 96.1693 4.07183C98.3894 4.18284 99.7213 5.18188 99.8323 7.40197C96.6132 7.62398 91.729 10.0661 88.2879 10.1771C87.9548 10.9541 86.4009 10.7321 86.1789 11.7312C85.7349 10.3991 84.2918 12.0642 83.4038 11.1762C82.9597 12.1752 80.8506 11.3981 80.9616 12.9522C80.2955 13.0632 80.4066 12.5081 80.4066 12.0641C63.6449 14.6172 49.5474 6.84697 34.0067 4.51588C33.8957 4.07186 33.0077 4.29389 33.4517 3.29485C32.6747 3.51686 32.7856 4.51582 31.6755 4.18281V3.29485C29.0114 4.4049 27.6793 3.84988 25.0152 3.29485C18.91 4.29389 12.9158 2.73978 7.69855 6.29192C6.69951 5.07087 6.03354 6.9579 4.70148 5.95885C3.59144 5.95885 3.48035 7.84599 2.2593 6.84694C2.1483 5.62589 2.81443 5.18185 4.03548 5.29285C4.25749 4.40482 3.25845 4.7378 3.48046 3.73876C5.14553 4.6268 6.81052 3.62787 7.14353 2.18481C13.6928 0.519739 20.5751 -0.257321 27.7904 0.0756931C28.4564 0.519711 29.0114 1.18568 30.0104 1.40769Z" fill="#4A4037"/>
<path d="M3.59142 7.51295C3.92444 7.62395 4.25745 7.84602 4.14645 8.40104C3.70243 8.51204 3.59137 8.06797 3.25836 8.06797C3.36936 7.84596 3.59142 7.84596 3.59142 7.51295Z" fill="#4A4037"/>
<path d="M1.4822 4.51588H2.03722V5.0709H1.4822V4.51588Z" fill="#4A4037"/>
<path d="M96.7243 45.6985V44.4775C97.5013 44.0335 98.5003 43.8115 99.1663 43.2565C100.054 43.5895 100.609 44.2555 101.608 44.4775C100.609 46.1426 98.5004 47.2526 96.7243 45.6985Z" fill="#4A4037"/>
</svg>
